<?xml version="1.0" encoding="utf-8"?>
<!-- Generator: Adobe Illustrator 16.0.0, SVG Export Plug-In . SVG Version: 6.00 Build 0)  -->
<!DOCTYPE svg PUBLIC "-//W3C//DTD SVG 1.1//EN" "http://www.w3.org/Graphics/SVG/1.1/DTD/svg11.dtd">
<svg version="1.1" id="AI" xmlns="http://www.w3.org/2000/svg" xmlns:xlink="http://www.w3.org/1999/xlink" x="0px" y="0px"
	 width="200px" height="400px" viewBox="0 0 200 400" enable-background="new 0 0 200 400" xml:space="preserve">
<g id="Gimbal">
	<rect id="Ground" x="10" y="200" fill="#754C24" width="180" height="200"/>
	<rect id="Air" x="10" fill="#0071BC" width="180" height="200"/>
	<rect x="80" y="179" fill="#FFFFFF" width="40" height="2"/>
	<rect x="90" y="190" fill="#FFFFFF" width="20" height="2"/>
	<rect x="90" y="169" fill="#FFFFFF" width="20" height="2"/>
	<rect x="80" y="159" fill="#FFFFFF" width="40" height="2"/>
	<rect x="120" y="177.5" fill="none" width="10" height="5"/>
	<text transform="matrix(1 0 0 1 120.6904 181.9312)" fill="#FFFFFF" font-family="'CourierNewPS-BoldMT'" font-size="7">10</text>
	<rect x="120" y="157.5" fill="none" width="10" height="5"/>
	<text transform="matrix(1 0 0 1 120.7769 161.9312)" fill="#FFFFFF" font-family="'CourierNewPS-BoldMT'" font-size="7">20</text>
	<rect x="70" y="177.5" fill="none" width="10" height="5"/>
	<text transform="matrix(1 0 0 1 70.6904 181.9312)" fill="#FFFFFF" font-family="'CourierNewPS-BoldMT'" font-size="7">10</text>
	<rect x="70" y="157.5" fill="none" width="10" height="5"/>
	<text transform="matrix(1 0 0 1 70.7769 161.9312)" fill="#FFFFFF" font-family="'CourierNewPS-BoldMT'" font-size="7">20</text>
	<rect x="90" y="149" fill="#FFFFFF" width="20" height="2"/>
	<rect x="80" y="239" fill="#FFFFFF" width="40" height="2"/>
	<rect x="90" y="250" fill="#FFFFFF" width="20" height="2"/>
	<rect x="90" y="229" fill="#FFFFFF" width="20" height="2"/>
	<rect x="80" y="219" fill="#FFFFFF" width="40" height="2"/>
	<rect x="120" y="237.5" fill="none" width="10" height="5"/>
	<text transform="matrix(1 0 0 1 120.6904 241.9312)" fill="#FFFFFF" font-family="'CourierNewPS-BoldMT'" font-size="7">10</text>
	<rect x="120" y="217.5" fill="none" width="10" height="5"/>
	<text transform="matrix(1 0 0 1 120.7769 221.9312)" fill="#FFFFFF" font-family="'CourierNewPS-BoldMT'" font-size="7">20</text>
	<rect x="70" y="237.5" fill="none" width="10" height="5"/>
	<text transform="matrix(1 0 0 1 70.6904 241.9312)" fill="#FFFFFF" font-family="'CourierNewPS-BoldMT'" font-size="7">10</text>
	<rect x="70" y="217.5" fill="none" width="10" height="5"/>
	<text transform="matrix(1 0 0 1 70.7769 221.9312)" fill="#FFFFFF" font-family="'CourierNewPS-BoldMT'" font-size="7">20</text>
	<rect x="90" y="209" fill="#FFFFFF" width="20" height="2"/>
	<rect x="10" y="199" fill="#FFFFFF" width="180" height="2"/>
</g>
<g id="Inner" display="none">
	<path id="Ring" display="inline" fill="#B3B3B3" d="M320,220c-44.183,0-80,35.817-80,80c0,44.183,35.817,80,80,80
		c44.183,0,80-35.817,80-80C400,255.817,364.183,220,320,220z M320,370c-38.66,0-70-31.34-70-70s31.34-70,70-70s70,31.34,70,70
		S358.66,370,320,370z"/>
	<g id="Layer_6" display="inline">
		<g>
			<path fill="#FFFFFF" d="M259.388,265.005c0,0-0.175-0.01-0.47-0.047c-0.147-0.019-0.326-0.042-0.524-0.08
				c-0.1-0.018-0.206-0.037-0.318-0.056c-0.111-0.021-0.184-0.12-0.292-0.167c-0.813-0.469-1.896-1.095-2.98-1.721
				c-1.083-0.625-2.167-1.251-2.98-1.72c-0.093-0.073-0.217-0.083-0.287-0.176c-0.073-0.087-0.143-0.17-0.208-0.248
				c-0.128-0.159-0.24-0.298-0.332-0.413c-0.18-0.235-0.278-0.379-0.278-0.379s0.173,0.013,0.467,0.051
				c0.145,0.022,0.321,0.05,0.523,0.081c0.1,0.018,0.207,0.036,0.318,0.056c0.116,0.014,0.187,0.116,0.296,0.161
				c0.813,0.469,1.896,1.095,2.98,1.721c1.083,0.625,2.167,1.251,2.98,1.72c0.094,0.071,0.216,0.085,0.291,0.17
				c0.073,0.087,0.142,0.17,0.208,0.248c0.132,0.153,0.241,0.296,0.331,0.414C259.292,264.859,259.388,265.005,259.388,265.005z"/>
		</g>
		<g>
			<path fill="#FFFFFF" d="M389.282,260c0,0-0.096,0.146-0.275,0.383c-0.09,0.118-0.199,0.261-0.331,0.414
				c-0.064,0.078-0.134,0.161-0.207,0.248c-0.074,0.085-0.196,0.099-0.29,0.17c-0.813,0.469-1.896,1.094-2.979,1.719
				c-1.083,0.625-2.166,1.251-2.979,1.72c-0.109,0.044-0.18,0.147-0.296,0.161c-0.111,0.02-0.218,0.039-0.317,0.056
				c-0.202,0.031-0.378,0.059-0.523,0.081c-0.294,0.039-0.467,0.051-0.467,0.051s0.098-0.144,0.277-0.379
				c0.093-0.114,0.204-0.253,0.332-0.412c0.065-0.078,0.135-0.161,0.207-0.248c0.07-0.093,0.194-0.103,0.287-0.176
				c0.813-0.469,1.896-1.094,2.979-1.719c1.083-0.625,2.166-1.251,2.979-1.72c0.108-0.046,0.182-0.145,0.292-0.167
				c0.112-0.02,0.219-0.038,0.318-0.056c0.198-0.038,0.377-0.061,0.523-0.08C389.107,260.01,389.282,260,389.282,260z"/>
		</g>
		<g>
			<path fill="#FFFFFF" d="M360,230.718c0,0-0.01,0.175-0.047,0.47c-0.02,0.147-0.042,0.326-0.08,0.524
				c-0.018,0.1-0.036,0.207-0.056,0.318c-0.021,0.111-0.12,0.184-0.166,0.292c-0.47,0.813-1.095,1.897-1.721,2.98
				c-0.626,1.084-1.251,2.168-1.721,2.98c-0.072,0.094-0.083,0.218-0.176,0.288c-0.087,0.073-0.17,0.142-0.248,0.208
				c-0.159,0.128-0.298,0.24-0.412,0.332c-0.235,0.18-0.379,0.278-0.379,0.278s0.013-0.173,0.051-0.467
				c0.022-0.145,0.05-0.321,0.081-0.523c0.018-0.1,0.037-0.207,0.057-0.318c0.014-0.116,0.116-0.187,0.16-0.296
				c0.47-0.813,1.095-1.897,1.721-2.98c0.626-1.084,1.251-2.168,1.721-2.98c0.071-0.095,0.085-0.216,0.17-0.291
				c0.087-0.073,0.17-0.143,0.248-0.208c0.152-0.132,0.296-0.241,0.414-0.331C359.854,230.814,360,230.718,360,230.718z"/>
		</g>
		<g>
			<path fill="#FFFFFF" d="M280,230.718c0,0,0.146,0.096,0.383,0.275c0.118,0.09,0.261,0.199,0.414,0.331
				c0.078,0.065,0.161,0.134,0.248,0.208c0.085,0.074,0.099,0.196,0.17,0.29c0.469,0.813,1.094,1.896,1.719,2.979
				c0.625,1.083,1.251,2.166,1.72,2.978c0.044,0.11,0.147,0.181,0.161,0.296c0.02,0.112,0.039,0.218,0.056,0.318
				c0.031,0.202,0.059,0.378,0.081,0.523c0.039,0.293,0.051,0.467,0.051,0.467s-0.144-0.098-0.379-0.278
				c-0.114-0.092-0.253-0.204-0.412-0.332c-0.078-0.065-0.161-0.134-0.248-0.208c-0.093-0.069-0.103-0.193-0.176-0.287
				c-0.469-0.813-1.094-1.896-1.719-2.979c-0.625-1.083-1.251-2.166-1.72-2.978c-0.046-0.109-0.145-0.182-0.167-0.292
				c-0.02-0.112-0.038-0.219-0.056-0.318c-0.038-0.198-0.061-0.377-0.08-0.524C280.01,230.893,280,230.718,280,230.718z"/>
		</g>
		<g id="_x34_5">
			<path fill="#FFFFFF" d="M369.493,250.507c0,0,0.001-0.113,0.02-0.294c0.009-0.09,0.021-0.2,0.043-0.316
				c0.01-0.06,0.021-0.123,0.032-0.189c0.013-0.065,0.089-0.071,0.121-0.124c0.342-0.342,0.797-0.797,1.253-1.253
				c0.455-0.456,0.911-0.911,1.253-1.253c0.054-0.031,0.058-0.11,0.129-0.116c0.066-0.012,0.129-0.022,0.188-0.032
				c0.116-0.022,0.226-0.034,0.315-0.044c0.18-0.02,0.29-0.023,0.29-0.023s-0.003,0.11-0.022,0.291
				c-0.011,0.089-0.022,0.198-0.045,0.315c-0.01,0.059-0.021,0.123-0.032,0.189c-0.007,0.071-0.085,0.074-0.116,0.128
				c-0.342,0.342-0.797,0.797-1.253,1.253c-0.455,0.456-0.911,0.911-1.253,1.253c-0.053,0.033-0.059,0.108-0.124,0.121
				c-0.066,0.011-0.13,0.022-0.188,0.032c-0.116,0.022-0.227,0.034-0.316,0.043C369.606,250.506,369.493,250.507,369.493,250.507z"
				/>
		</g>
		<g id="_x2D_10">
			<path fill="#FFFFFF" d="M307.847,231.077c0,0-0.092-0.064-0.229-0.181c-0.068-0.058-0.151-0.129-0.233-0.213
				c-0.043-0.042-0.088-0.085-0.136-0.132c-0.046-0.047-0.007-0.111-0.032-0.167c-0.083-0.468-0.193-1.093-0.303-1.718
				c-0.11-0.625-0.22-1.249-0.303-1.717c0.006-0.062-0.057-0.108-0.021-0.17c0.029-0.06,0.057-0.117,0.083-0.17
				c0.049-0.107,0.103-0.202,0.145-0.28c0.087-0.156,0.148-0.248,0.148-0.248s0.088,0.065,0.224,0.182
				c0.067,0.059,0.149,0.13,0.232,0.213c0.042,0.042,0.088,0.086,0.136,0.132c0.055,0.045,0.012,0.111,0.038,0.167
				c0.083,0.468,0.193,1.093,0.303,1.718c0.11,0.625,0.22,1.249,0.303,1.717c-0.004,0.061,0.054,0.109,0.027,0.168
				c-0.029,0.06-0.057,0.117-0.083,0.171c-0.048,0.106-0.103,0.202-0.146,0.28C307.911,230.985,307.847,231.077,307.847,231.077z"/>
		</g>
		<g>
			<path fill="#FFFFFF" d="M343.944,234.214c0,0-0.047-0.103-0.106-0.276c-0.029-0.086-0.065-0.191-0.094-0.306
				c-0.016-0.058-0.032-0.12-0.05-0.186c-0.016-0.065,0.05-0.103,0.058-0.165c0.166-0.457,0.388-1.066,0.609-1.675
				c0.222-0.609,0.443-1.218,0.609-1.675c0.036-0.052,0.006-0.125,0.068-0.161c0.055-0.039,0.107-0.075,0.157-0.11
				c0.097-0.07,0.191-0.127,0.268-0.175c0.155-0.094,0.254-0.145,0.254-0.145s0.043,0.102,0.102,0.274
				c0.028,0.086,0.063,0.19,0.093,0.306c0.016,0.059,0.032,0.121,0.05,0.186c0.024,0.067-0.046,0.104-0.052,0.167
				c-0.166,0.457-0.388,1.066-0.609,1.675c-0.222,0.609-0.443,1.218-0.609,1.675c-0.034,0.052-0.009,0.124-0.062,0.163
				c-0.056,0.039-0.108,0.076-0.158,0.11c-0.096,0.07-0.19,0.127-0.269,0.174C344.047,234.165,343.944,234.214,343.944,234.214z"/>
		</g>
		<g>
			<path fill="#FFFFFF" d="M332.155,231.067c0,0-0.063-0.093-0.153-0.252c-0.043-0.079-0.097-0.175-0.146-0.284
				c-0.025-0.054-0.053-0.112-0.082-0.173c-0.026-0.061,0.032-0.109,0.028-0.171c0.084-0.476,0.195-1.11,0.308-1.744
				c0.111-0.634,0.224-1.268,0.308-1.744c0.026-0.057-0.017-0.123,0.038-0.169c0.048-0.047,0.094-0.092,0.137-0.134
				c0.082-0.085,0.165-0.158,0.232-0.217c0.136-0.119,0.225-0.185,0.225-0.185s0.061,0.092,0.147,0.251
				c0.043,0.079,0.096,0.175,0.145,0.283c0.026,0.054,0.054,0.112,0.082,0.173c0.035,0.062-0.026,0.11-0.021,0.172
				c-0.084,0.476-0.195,1.11-0.308,1.744c-0.111,0.634-0.224,1.268-0.308,1.744c-0.024,0.057,0.014,0.123-0.032,0.17
				c-0.048,0.047-0.093,0.092-0.136,0.135c-0.082,0.085-0.166,0.157-0.234,0.217C332.247,231.002,332.155,231.067,332.155,231.067z"
				/>
		</g>
		<g>
			<path fill="#FFFFFF" d="M270.507,250.507c0,0-0.109,0.003-0.283-0.008c-0.086-0.006-0.192-0.013-0.303-0.031
				c-0.057-0.008-0.117-0.016-0.181-0.024c-0.062-0.01-0.065-0.083-0.115-0.112c-0.318-0.318-0.742-0.741-1.165-1.165
				c-0.424-0.423-0.847-0.847-1.165-1.165c-0.028-0.051-0.104-0.051-0.108-0.12c-0.008-0.063-0.017-0.124-0.024-0.181
				c-0.017-0.112-0.024-0.217-0.032-0.303c-0.012-0.173-0.012-0.279-0.012-0.279s0.106,0,0.279,0.012
				c0.085,0.007,0.191,0.015,0.303,0.032c0.057,0.008,0.117,0.016,0.181,0.024c0.069,0.004,0.069,0.08,0.12,0.108
				c0.318,0.318,0.742,0.741,1.165,1.165c0.424,0.423,0.847,0.847,1.165,1.165c0.029,0.05,0.102,0.053,0.112,0.115
				c0.009,0.064,0.017,0.125,0.024,0.181c0.018,0.111,0.025,0.217,0.031,0.303C270.51,250.398,270.507,250.507,270.507,250.507z"/>
		</g>
		<g>
			<path fill="#FFFFFF" d="M296.054,234.209c0,0-0.101-0.046-0.256-0.136c-0.077-0.045-0.17-0.099-0.266-0.166
				c-0.049-0.033-0.101-0.068-0.156-0.105c-0.053-0.038-0.026-0.107-0.06-0.157c-0.161-0.441-0.375-1.029-0.589-1.617
				c-0.214-0.588-0.428-1.176-0.588-1.617c-0.005-0.061-0.074-0.095-0.049-0.161c0.018-0.064,0.036-0.124,0.052-0.181
				c0.03-0.112,0.067-0.214,0.096-0.298c0.06-0.167,0.104-0.267,0.104-0.267s0.098,0.048,0.251,0.138
				c0.076,0.045,0.169,0.1,0.264,0.167c0.049,0.033,0.101,0.068,0.156,0.104c0.061,0.035,0.03,0.106,0.065,0.155
				c0.161,0.441,0.375,1.029,0.589,1.617c0.214,0.588,0.428,1.176,0.588,1.617c0.007,0.06,0.072,0.096,0.056,0.159
				c-0.018,0.063-0.036,0.124-0.052,0.181c-0.03,0.112-0.066,0.214-0.097,0.298C296.101,234.109,296.054,234.209,296.054,234.209z"
				/>
		</g>
		<polygon fill="#FFFFFF" points="320,219.813 316.688,219.852 320,229.969 323.313,219.852 		"/>
	</g>
</g>
<g id="Outer" display="none">
	<path id="Cover" display="inline" fill="#1A1A1A" d="M220,200v200h200V200H220z M320.978,396.156
		c-53.521,0-96.909-43.387-96.909-96.91c0-53.521,43.388-96.909,96.909-96.909s96.909,43.388,96.909,96.909
		C417.887,352.77,374.499,396.156,320.978,396.156z"/>
	<path display="inline" fill="#808080" d="M320,200c-55.229,0-100,44.771-100,100s44.771,100,100,100s100-44.771,100-100
		S375.229,200,320,200z M320,380c-44.183,0-80-35.816-80-80c0-44.183,35.817-80,80-80c44.184,0,80,35.817,80,80
		C400,344.184,364.184,380,320,380z"/>
	<g id="Layer_4" display="inline">
		<circle fill="#FFFF00" cx="320" cy="300" r="2"/>
		<polyline fill="none" stroke="#FFFF00" stroke-width="2" stroke-miterlimit="10" points="290,300 300,300 310,310 320,300 
			330,310 340,300 350,300 		"/>
	</g>
</g>
</svg>
