<?xml version="1.0" encoding="utf-8"?>
<!-- Generator: Adobe Illustrator 16.0.0, SVG Export Plug-In . SVG Version: 6.00 Build 0)  -->
<!DOCTYPE svg PUBLIC "-//W3C//DTD SVG 1.1//EN" "http://www.w3.org/Graphics/SVG/1.1/DTD/svg11.dtd">
<svg version="1.1" xmlns="http://www.w3.org/2000/svg" xmlns:xlink="http://www.w3.org/1999/xlink" x="0px" y="0px" width="200px"
	 height="200px" viewBox="0 0 200 200" enable-background="new 0 0 200 200" xml:space="preserve">
<g id="AI">
	<g id="Gimbal">
		<rect id="Ground" x="-210" fill="#754C24" width="180" height="200"/>
		<rect id="Air" x="-210" y="-200" fill="#0071BC" width="180" height="200"/>
		<rect x="-140" y="-21" fill="#FFFFFF" width="40" height="2"/>
		<rect x="-130" y="-10" fill="#FFFFFF" width="20" height="2"/>
		<rect x="-130" y="-31" fill="#FFFFFF" width="20" height="2"/>
		<rect x="-140" y="-41" fill="#FFFFFF" width="40" height="2"/>
		<rect x="-100" y="-22.5" fill="none" width="10" height="5"/>
		<text transform="matrix(1 0 0 1 -99.3096 -18.0688)" fill="#FFFFFF" font-family="'CourierNewPS-BoldMT'" font-size="7">10</text>
		<rect x="-100" y="-42.5" fill="none" width="10" height="5"/>
		<text transform="matrix(1 0 0 1 -99.2231 -38.0688)" fill="#FFFFFF" font-family="'CourierNewPS-BoldMT'" font-size="7">20</text>
		<rect x="-150" y="-22.5" fill="none" width="10" height="5"/>
		<text transform="matrix(1 0 0 1 -149.3096 -18.0688)" fill="#FFFFFF" font-family="'CourierNewPS-BoldMT'" font-size="7">10</text>
		<rect x="-150" y="-42.5" fill="none" width="10" height="5"/>
		<text transform="matrix(1 0 0 1 -149.2231 -38.0688)" fill="#FFFFFF" font-family="'CourierNewPS-BoldMT'" font-size="7">20</text>
		<rect x="-130" y="-51" fill="#FFFFFF" width="20" height="2"/>
		<rect x="-140" y="39" fill="#FFFFFF" width="40" height="2"/>
		<rect x="-130" y="50" fill="#FFFFFF" width="20" height="2"/>
		<rect x="-130" y="29" fill="#FFFFFF" width="20" height="2"/>
		<rect x="-140" y="19" fill="#FFFFFF" width="40" height="2"/>
		<rect x="-100" y="37.5" fill="none" width="10" height="5"/>
		<text transform="matrix(1 0 0 1 -99.3096 41.9312)" fill="#FFFFFF" font-family="'CourierNewPS-BoldMT'" font-size="7">10</text>
		<rect x="-100" y="17.5" fill="none" width="10" height="5"/>
		<text transform="matrix(1 0 0 1 -99.2231 21.9312)" fill="#FFFFFF" font-family="'CourierNewPS-BoldMT'" font-size="7">20</text>
		<rect x="-150" y="37.5" fill="none" width="10" height="5"/>
		<text transform="matrix(1 0 0 1 -149.3096 41.9312)" fill="#FFFFFF" font-family="'CourierNewPS-BoldMT'" font-size="7">10</text>
		<rect x="-150" y="17.5" fill="none" width="10" height="5"/>
		<text transform="matrix(1 0 0 1 -149.2231 21.9312)" fill="#FFFFFF" font-family="'CourierNewPS-BoldMT'" font-size="7">20</text>
		<rect x="-130" y="9" fill="#FFFFFF" width="20" height="2"/>
		<rect x="-210" y="-1" fill="#FFFFFF" width="180" height="2"/>
	</g>
	<g id="Inner" display="none">
		<path id="Ring" display="inline" fill="#B3B3B3" d="M100,20c-44.183,0-80,35.817-80,80c0,44.183,35.817,80,80,80
			c44.183,0,80-35.817,80-80C180,55.817,144.183,20,100,20z M100,170c-38.66,0-70-31.34-70-70s31.34-70,70-70s70,31.34,70,70
			S138.66,170,100,170z"/>
		<g id="Layer_6" display="inline">
			<g>
				<path fill="#FFFFFF" d="M39.388,65.005c0,0-0.175-0.01-0.47-0.047c-0.147-0.019-0.326-0.042-0.524-0.08
					c-0.1-0.018-0.206-0.037-0.318-0.056c-0.111-0.021-0.184-0.12-0.292-0.167c-0.813-0.469-1.896-1.095-2.98-1.721
					c-1.083-0.625-2.167-1.251-2.98-1.72c-0.093-0.073-0.217-0.083-0.287-0.176c-0.073-0.087-0.143-0.17-0.208-0.248
					c-0.128-0.159-0.24-0.298-0.332-0.413C30.816,60.144,30.718,60,30.718,60s0.173,0.013,0.467,0.051
					c0.145,0.022,0.321,0.05,0.523,0.081c0.1,0.018,0.207,0.036,0.318,0.056c0.116,0.014,0.187,0.116,0.296,0.161
					c0.813,0.469,1.896,1.095,2.98,1.721c1.083,0.625,2.167,1.251,2.98,1.72c0.094,0.071,0.216,0.085,0.291,0.17
					c0.073,0.087,0.142,0.17,0.208,0.248c0.132,0.153,0.241,0.296,0.331,0.414C39.292,64.859,39.388,65.005,39.388,65.005z"/>
			</g>
			<g>
				<path fill="#FFFFFF" d="M169.282,60c0,0-0.096,0.146-0.275,0.383c-0.09,0.118-0.199,0.261-0.331,0.414
					c-0.064,0.078-0.134,0.161-0.207,0.248c-0.074,0.085-0.196,0.099-0.29,0.17c-0.813,0.469-1.896,1.094-2.979,1.719
					c-1.083,0.625-2.166,1.251-2.979,1.72c-0.109,0.044-0.18,0.147-0.296,0.161c-0.111,0.02-0.218,0.039-0.317,0.056
					c-0.202,0.031-0.378,0.059-0.523,0.081c-0.294,0.039-0.467,0.051-0.467,0.051s0.098-0.144,0.277-0.379
					c0.093-0.114,0.204-0.253,0.332-0.412c0.065-0.078,0.135-0.161,0.207-0.248c0.07-0.093,0.194-0.103,0.287-0.176
					c0.813-0.469,1.896-1.094,2.979-1.719c1.083-0.625,2.166-1.251,2.979-1.72c0.108-0.046,0.182-0.145,0.292-0.167
					c0.112-0.02,0.219-0.038,0.318-0.056c0.198-0.038,0.377-0.061,0.523-0.08C169.107,60.01,169.282,60,169.282,60z"/>
			</g>
			<g>
				<path fill="#FFFFFF" d="M140,30.718c0,0-0.01,0.175-0.047,0.47c-0.02,0.147-0.042,0.326-0.08,0.524
					c-0.018,0.1-0.036,0.207-0.056,0.318c-0.021,0.111-0.12,0.184-0.166,0.292c-0.47,0.813-1.095,1.897-1.721,2.98
					c-0.626,1.084-1.251,2.168-1.721,2.98c-0.072,0.094-0.083,0.218-0.176,0.288c-0.087,0.073-0.17,0.142-0.248,0.208
					c-0.159,0.128-0.298,0.24-0.412,0.332c-0.235,0.18-0.379,0.278-0.379,0.278s0.013-0.173,0.051-0.467
					c0.022-0.145,0.05-0.321,0.081-0.523c0.018-0.1,0.037-0.207,0.057-0.318c0.014-0.116,0.116-0.187,0.16-0.296
					c0.47-0.813,1.095-1.897,1.721-2.98c0.626-1.084,1.251-2.168,1.721-2.98c0.071-0.095,0.085-0.216,0.17-0.291
					c0.087-0.073,0.17-0.143,0.248-0.208c0.152-0.132,0.296-0.241,0.414-0.331C139.854,30.814,140,30.718,140,30.718z"/>
			</g>
			<g>
				<path fill="#FFFFFF" d="M60,30.718c0,0,0.146,0.096,0.383,0.275c0.118,0.09,0.261,0.199,0.414,0.331
					c0.078,0.065,0.161,0.134,0.248,0.208c0.085,0.074,0.099,0.196,0.17,0.29c0.469,0.813,1.094,1.896,1.719,2.979
					c0.625,1.083,1.251,2.166,1.72,2.978c0.044,0.11,0.147,0.181,0.161,0.296c0.02,0.112,0.039,0.218,0.056,0.318
					c0.031,0.202,0.059,0.378,0.081,0.523c0.039,0.293,0.051,0.467,0.051,0.467s-0.144-0.098-0.379-0.278
					c-0.114-0.092-0.253-0.204-0.412-0.332c-0.078-0.065-0.161-0.134-0.248-0.208c-0.093-0.069-0.103-0.193-0.176-0.287
					c-0.469-0.813-1.094-1.896-1.719-2.979c-0.625-1.083-1.251-2.166-1.72-2.978c-0.046-0.109-0.145-0.182-0.167-0.292
					c-0.02-0.112-0.038-0.219-0.056-0.318c-0.038-0.198-0.061-0.377-0.08-0.524C60.01,30.893,60,30.718,60,30.718z"/>
			</g>
			<g id="_x34_5">
				<path fill="#FFFFFF" d="M149.493,50.507c0,0,0.001-0.113,0.02-0.294c0.009-0.09,0.021-0.2,0.043-0.316
					c0.01-0.06,0.021-0.123,0.032-0.189c0.013-0.065,0.089-0.071,0.121-0.124c0.342-0.342,0.797-0.797,1.253-1.253
					c0.455-0.456,0.911-0.911,1.253-1.253c0.054-0.031,0.058-0.11,0.129-0.116c0.066-0.012,0.129-0.022,0.188-0.032
					c0.116-0.022,0.226-0.034,0.315-0.044c0.18-0.02,0.29-0.023,0.29-0.023s-0.003,0.11-0.022,0.291
					c-0.011,0.089-0.022,0.198-0.045,0.315c-0.01,0.059-0.021,0.123-0.032,0.189c-0.007,0.071-0.085,0.074-0.116,0.128
					c-0.342,0.342-0.797,0.797-1.253,1.253c-0.455,0.456-0.911,0.911-1.253,1.253c-0.053,0.033-0.059,0.108-0.124,0.121
					c-0.066,0.011-0.13,0.022-0.188,0.032c-0.116,0.022-0.227,0.034-0.316,0.043C149.606,50.506,149.493,50.507,149.493,50.507z"/>
			</g>
			<g id="_x2D_10">
				<path fill="#FFFFFF" d="M87.847,31.077c0,0-0.092-0.064-0.229-0.181c-0.068-0.058-0.151-0.129-0.233-0.213
					c-0.043-0.042-0.088-0.085-0.136-0.132c-0.046-0.047-0.007-0.111-0.032-0.167c-0.083-0.468-0.193-1.093-0.303-1.718
					c-0.11-0.625-0.22-1.249-0.303-1.717c0.006-0.062-0.057-0.108-0.021-0.17c0.029-0.06,0.057-0.117,0.083-0.17
					c0.049-0.107,0.103-0.202,0.145-0.28c0.087-0.156,0.148-0.248,0.148-0.248s0.088,0.065,0.224,0.182
					c0.067,0.059,0.149,0.13,0.232,0.213c0.042,0.042,0.088,0.086,0.136,0.132c0.055,0.045,0.012,0.111,0.038,0.167
					c0.083,0.468,0.193,1.093,0.303,1.718c0.11,0.625,0.22,1.249,0.303,1.717c-0.004,0.061,0.054,0.109,0.027,0.168
					c-0.029,0.06-0.057,0.117-0.083,0.171c-0.048,0.106-0.103,0.202-0.146,0.28C87.911,30.985,87.847,31.077,87.847,31.077z"/>
			</g>
			<g>
				<path fill="#FFFFFF" d="M123.944,34.214c0,0-0.047-0.103-0.106-0.276c-0.029-0.086-0.065-0.191-0.094-0.306
					c-0.016-0.058-0.032-0.12-0.05-0.186c-0.016-0.065,0.05-0.103,0.058-0.165c0.166-0.457,0.388-1.066,0.609-1.675
					c0.222-0.609,0.443-1.218,0.609-1.675c0.036-0.052,0.006-0.125,0.068-0.161c0.055-0.039,0.107-0.075,0.157-0.11
					c0.097-0.07,0.191-0.127,0.268-0.175c0.155-0.094,0.254-0.145,0.254-0.145s0.043,0.102,0.102,0.274
					c0.028,0.086,0.063,0.19,0.093,0.306c0.016,0.059,0.032,0.121,0.05,0.186c0.024,0.067-0.046,0.104-0.052,0.167
					c-0.166,0.457-0.388,1.066-0.609,1.675c-0.222,0.609-0.443,1.218-0.609,1.675c-0.034,0.052-0.009,0.124-0.062,0.163
					c-0.056,0.039-0.108,0.076-0.158,0.11c-0.096,0.07-0.19,0.127-0.269,0.174C124.047,34.165,123.944,34.214,123.944,34.214z"/>
			</g>
			<g>
				<path fill="#FFFFFF" d="M112.155,31.067c0,0-0.063-0.093-0.153-0.252c-0.043-0.079-0.097-0.175-0.146-0.284
					c-0.025-0.054-0.053-0.112-0.082-0.173c-0.026-0.061,0.032-0.109,0.028-0.171c0.084-0.476,0.195-1.11,0.308-1.744
					c0.111-0.634,0.224-1.268,0.308-1.744c0.026-0.057-0.017-0.123,0.038-0.169c0.048-0.047,0.094-0.092,0.137-0.134
					c0.082-0.085,0.165-0.158,0.232-0.217c0.136-0.119,0.225-0.185,0.225-0.185s0.061,0.092,0.147,0.251
					c0.043,0.079,0.096,0.175,0.145,0.283c0.026,0.054,0.054,0.112,0.082,0.173c0.035,0.062-0.026,0.11-0.021,0.172
					c-0.084,0.476-0.195,1.11-0.308,1.744c-0.111,0.634-0.224,1.268-0.308,1.744c-0.024,0.057,0.014,0.123-0.032,0.17
					c-0.048,0.047-0.093,0.092-0.136,0.135c-0.082,0.085-0.166,0.157-0.234,0.217C112.247,31.002,112.155,31.067,112.155,31.067z"/>
			</g>
			<g>
				<path fill="#FFFFFF" d="M50.507,50.507c0,0-0.109,0.003-0.283-0.008c-0.086-0.006-0.192-0.013-0.303-0.031
					c-0.057-0.008-0.117-0.016-0.181-0.024c-0.062-0.01-0.065-0.083-0.115-0.112c-0.318-0.318-0.742-0.741-1.165-1.165
					c-0.424-0.423-0.847-0.847-1.165-1.165c-0.028-0.051-0.104-0.051-0.108-0.12c-0.008-0.063-0.017-0.124-0.024-0.181
					c-0.017-0.112-0.024-0.217-0.032-0.303c-0.012-0.173-0.012-0.279-0.012-0.279s0.106,0,0.279,0.012
					c0.085,0.007,0.191,0.015,0.303,0.032c0.057,0.008,0.117,0.016,0.181,0.024c0.069,0.004,0.069,0.08,0.12,0.108
					c0.318,0.318,0.742,0.741,1.165,1.165c0.424,0.423,0.847,0.847,1.165,1.165c0.029,0.05,0.102,0.053,0.112,0.115
					c0.009,0.064,0.017,0.125,0.024,0.181c0.018,0.111,0.025,0.217,0.031,0.303C50.51,50.398,50.507,50.507,50.507,50.507z"/>
			</g>
			<g>
				<path fill="#FFFFFF" d="M76.054,34.209c0,0-0.101-0.046-0.256-0.136c-0.077-0.045-0.17-0.099-0.266-0.166
					c-0.049-0.033-0.101-0.068-0.156-0.105c-0.053-0.038-0.026-0.107-0.06-0.157c-0.161-0.441-0.375-1.029-0.589-1.617
					c-0.214-0.588-0.428-1.176-0.588-1.617c-0.005-0.061-0.074-0.095-0.049-0.161c0.018-0.064,0.036-0.124,0.052-0.181
					c0.03-0.112,0.067-0.214,0.096-0.298c0.06-0.167,0.104-0.267,0.104-0.267s0.098,0.048,0.251,0.138
					c0.076,0.045,0.169,0.1,0.264,0.167c0.049,0.033,0.101,0.068,0.156,0.104c0.061,0.035,0.03,0.106,0.065,0.155
					c0.161,0.441,0.375,1.029,0.589,1.617c0.214,0.588,0.428,1.176,0.588,1.617c0.007,0.06,0.072,0.096,0.056,0.159
					c-0.018,0.063-0.036,0.124-0.052,0.181c-0.03,0.112-0.066,0.214-0.097,0.298C76.101,34.109,76.054,34.209,76.054,34.209z"/>
			</g>
			<polygon fill="#FFFFFF" points="100,19.813 96.688,19.852 100,29.969 103.313,19.852 			"/>
		</g>
	</g>
	<g id="Outer">
		<path id="Cover" fill="#1A1A1A" d="M0,0v200h200V0H0z M100.978,196.156c-53.521,0-96.909-43.387-96.909-96.91
			c0-53.521,43.388-96.909,96.909-96.909s96.909,43.388,96.909,96.909C197.887,152.77,154.499,196.156,100.978,196.156z"/>
		<path fill="#808080" d="M100,0C44.771,0,0,44.771,0,100s44.771,100,100,100s100-44.771,100-100S155.229,0,100,0z M100,180
			c-44.183,0-80-35.816-80-80c0-44.183,35.817-80,80-80c44.184,0,80,35.817,80,80C180,144.184,144.184,180,100,180z"/>
		<polygon fill="#FFFF00" points="100,40.178 103.313,40.139 100,30.022 96.688,40.139 		"/>
		<g id="Layer_4">
			<polyline fill="none" stroke="#FFFF00" stroke-width="2" stroke-miterlimit="10" points="48,100 65.111,100 82.556,117.584 
				100,100.208 117.444,117.549 134.889,100 152,100 			"/>
			<circle fill="#FFFF00" cx="100" cy="100" r="2"/>
		</g>
	</g>
</g>
<g id="HSI">
	<g id="Outer_1_">
		<rect x="220" y="-200" fill="#1A1A1A" width="400" height="400"/>
		<path fill="#808080" d="M420-200c-110.457,0-200,89.543-200,200s89.543,200,200,200S620,110.457,620,0S530.457-200,420-200z
			 M420,160c-88.365,0-160-71.633-160-160c0-88.365,71.635-160,160-160c88.367,0,160,71.635,160,160C580,88.367,508.367,160,420,160
			z"/>
	</g>
	<g id="Bearing_pointer">
		<g>
			<g>
				<line fill="none" stroke="#00FF00" stroke-width="2" stroke-miterlimit="10" x1="420" y1="157" x2="420" y2="-147"/>
				<g>
					<polygon fill="#00FF00" points="426.98,-145 420.001,-157.089 413.02,-145 					"/>
				</g>
			</g>
		</g>
	</g>
	<g id="Compass">
		<circle fill="#808080" cx="420" cy="0" r="140"/>
		<g id="Text">
			<circle fill="none" cx="420" cy="0" r="120"/>
			
				<text transform="matrix(0.9999 0.0162 -0.0162 0.9999 414.3672 -105.7632)" fill="#FFFFFF" font-family="'CourierNewPS-BoldMT'" font-size="18">N</text>
			<circle fill="none" cx="420" cy="0" r="120"/>
			
				<text transform="matrix(0.8656 0.5008 -0.5008 0.8656 468.1553 -94.2471)" fill="#FFFFFF" font-family="'CourierNewPS-BoldMT'" font-size="18">3</text>
			<circle fill="none" cx="420" cy="0" r="120"/>
			
				<text transform="matrix(0.4975 0.8675 -0.8675 0.4975 509.0547 -57.1704)" fill="#FFFFFF" font-family="'CourierNewPS-BoldMT'" font-size="18">6</text>
			<circle fill="none" cx="420" cy="0" r="120"/>
			
				<text transform="matrix(-0.0162 0.9999 -0.9999 -0.0162 525.7617 -5.6328)" fill="#FFFFFF" font-family="'CourierNewPS-BoldMT'" font-size="18">E</text>
			<circle fill="none" cx="420" cy="0" r="120"/>
			<text transform="matrix(-0.456 0.89 -0.89 -0.456 516.5742 43.311)"><tspan x="0" y="0" fill="#FFFFFF" font-family="'CourierNewPS-BoldMT'" font-size="18">1</tspan><tspan x="10.756" y="-0.002" fill="#FFFFFF" font-family="'CourierNewPS-BoldMT'" font-size="18" rotate="5.834">2</tspan></text>
			<circle fill="none" cx="420" cy="0" r="120"/>
			<text transform="matrix(-0.839 0.5442 -0.5442 -0.839 481.9443 85.7949)"><tspan x="0" y="0" fill="#FFFFFF" font-family="'CourierNewPS-BoldMT'" font-size="18">1</tspan><tspan x="10.756" y="-0.003" fill="#FFFFFF" font-family="'CourierNewPS-BoldMT'" font-size="18" rotate="5.835">5</tspan></text>
			<circle fill="none" cx="419.998" cy="0" r="120"/>
			
				<text transform="matrix(-0.9999 -0.0162 0.0162 -0.9999 425.6328 105.7607)" fill="#FFFFFF" font-family="'CourierNewPS-BoldMT'" font-size="18">S</text>
			<circle fill="none" cx="419.998" cy="0" r="120"/>
			<text transform="matrix(-0.89 -0.4559 0.4559 -0.89 376.708 96.5815)"><tspan x="0" y="0" fill="#FFFFFF" font-family="'CourierNewPS-BoldMT'" font-size="18">2</tspan><tspan x="10.735" y="-0.002" fill="#FFFFFF" font-family="'CourierNewPS-BoldMT'" font-size="18" rotate="5.823">1</tspan></text>
			<circle fill="none" cx="419.998" cy="0" r="120"/>
			<text transform="matrix(-0.5441 -0.839 0.839 -0.5441 334.2061 61.9438)"><tspan x="0" y="0" fill="#FFFFFF" font-family="'CourierNewPS-BoldMT'" font-size="18">2</tspan><tspan x="10.735" y="-0.003" fill="#FFFFFF" font-family="'CourierNewPS-BoldMT'" font-size="18" rotate="5.823">4</tspan></text>
			<circle fill="none" cx="419.998" cy="0" r="120"/>
			
				<text transform="matrix(0.0162 -0.9999 0.9999 0.0162 314.2354 5.6338)" fill="#FFFFFF" font-family="'CourierNewPS-BoldMT'" font-size="18">W</text>
			<circle fill="none" cx="419.998" cy="0" r="120"/>
			<text transform="matrix(0.456 -0.89 0.89 0.456 323.4229 -43.3101)"><tspan x="0" y="0" fill="#FFFFFF" font-family="'CourierNewPS-BoldMT'" font-size="18">3</tspan><tspan x="10.756" y="-0.002" fill="#FFFFFF" font-family="'CourierNewPS-BoldMT'" font-size="18" rotate="5.834">0</tspan></text>
			<circle fill="none" cx="419.998" cy="0" r="120"/>
			<text transform="matrix(0.839 -0.5442 0.5442 0.839 358.0527 -85.7939)"><tspan x="0" y="0" fill="#FFFFFF" font-family="'CourierNewPS-BoldMT'" font-size="18">3</tspan><tspan x="10.756" y="-0.003" fill="#FFFFFF" font-family="'CourierNewPS-BoldMT'" font-size="18" rotate="5.835">3</tspan></text>
		</g>
		<g id="Layer_21">
			<g>
				<rect x="419" y="119.587" fill="#FFFFFF" width="2" height="19.826"/>
				
					<rect x="442.456" y="117.597" transform="matrix(0.9854 -0.1705 0.1705 0.9854 -15.247 77.4742)" fill="#FFFFFF" width="1.999" height="19.826"/>
				
					<rect x="464.518" y="111.824" transform="matrix(0.9417 -0.3364 0.3364 0.9417 -13.8229 163.6786)" fill="#FFFFFF" width="2" height="19.826"/>
				
					<rect x="484.813" y="102.569" transform="matrix(0.8702 -0.4927 0.4927 0.8702 7.6416 253.9696)" fill="#FFFFFF" width="2" height="19.826"/>
				
					<rect x="502.966" y="90.135" transform="matrix(0.7722 -0.6354 0.6354 0.7722 51.2466 343.0216)" fill="#FFFFFF" width="1.999" height="19.826"/>
				
					<rect x="518.601" y="74.819" transform="matrix(0.6495 -0.7604 0.7604 0.6495 117.6917 424.7814)" fill="#FFFFFF" width="2" height="19.826"/>
				
					<rect x="531.346" y="56.923" transform="matrix(0.5044 -0.8635 0.8635 0.5044 206.1334 492.7998)" fill="#FFFFFF" width="2" height="19.827"/>
				
					<rect x="540.825" y="36.748" transform="matrix(0.3409 -0.9401 0.9401 0.3409 313.2608 540.1292)" fill="#FFFFFF" width="2" height="19.827"/>
				
					<rect x="546.665" y="14.595" transform="matrix(0.1655 -0.9862 0.9862 0.1655 432.8306 560.5584)" fill="#FFFFFF" width="2" height="19.826"/>
				
					<rect x="548.49" y="-9.204" transform="matrix(-0.0132 -0.9999 0.9999 -0.0132 556.0247 550.1601)" fill="#FFFFFF" width="2" height="19.826"/>
				
					<rect x="546.15" y="-32.65" transform="matrix(-0.187 -0.9824 0.9824 -0.187 671.8035 510.5098)" fill="#FFFFFF" width="2" height="19.826"/>
				
					<rect x="539.966" y="-54.7" transform="matrix(-0.353 -0.9356 0.9356 -0.353 773.8566 445.5307)" fill="#FFFFFF" width="2" height="19.826"/>
				
					<rect x="530.292" y="-74.992" transform="matrix(-0.5063 -0.8624 0.8624 -0.5063 856.3826 360.1535)" fill="#FFFFFF" width="2" height="19.826"/>
				
					<rect x="517.488" y="-93.16" transform="matrix(-0.6433 -0.7656 0.7656 -0.6433 915.7553 260.1731)" fill="#FFFFFF" width="1.999" height="19.826"/>
				
					<rect x="501.909" y="-108.841" transform="matrix(-0.7627 -0.6467 0.6467 -0.7627 950.4627 150.8707)" fill="#FFFFFF" width="2" height="19.826"/>
				
					<rect x="483.913" y="-121.671" transform="matrix(-0.8613 -0.5081 0.5081 -0.8613 959.3597 38.3453)" fill="#FFFFFF" width="2" height="19.826"/>
				
					<rect x="463.858" y="-131.285" transform="matrix(-0.9363 -0.3512 0.3512 -0.9363 942.7299 -71.7395)" fill="#FFFFFF" width="2.001" height="19.826"/>
				
					<rect x="442.101" y="-137.321" transform="matrix(-0.9838 -0.1794 0.1794 -0.9838 901.8723 -173.2455)" fill="#FFFFFF" width="2" height="19.826"/>
				<rect x="419" y="-139.413" fill="#FFFFFF" width="2" height="19.826"/>
				
					<rect x="395.899" y="-137.321" transform="matrix(-0.9835 0.1807 -0.1807 -0.9835 764.2437 -324.4335)" fill="#FFFFFF" width="2" height="19.827"/>
				
					<rect x="374.142" y="-131.285" transform="matrix(-0.9358 0.3526 -0.3526 -0.9358 683.3889 -367.2307)" fill="#FFFFFF" width="2" height="19.827"/>
				
					<rect x="354.087" y="-121.671" transform="matrix(-0.8606 0.5094 -0.5094 -0.8606 603.7355 -388.7954)" fill="#FFFFFF" width="2.001" height="19.827"/>
				
					<rect x="336.091" y="-108.841" transform="matrix(-0.7617 0.6479 -0.6479 -0.7617 529.7548 -392.693)" fill="#FFFFFF" width="2" height="19.827"/>
				
					<rect x="320.513" y="-93.161" transform="matrix(-0.6422 0.7665 -0.7665 -0.6422 464.1853 -383.1557)" fill="#FFFFFF" width="2" height="19.827"/>
				
					<rect x="307.708" y="-74.993" transform="matrix(-0.5049 0.8631 -0.8631 -0.5049 408.4155 -364.4022)" fill="#FFFFFF" width="2" height="19.827"/>
				
					<rect x="298.034" y="-54.702" transform="matrix(-0.3516 0.9361 -0.9361 -0.3516 362.2476 -340.4765)" fill="#FFFFFF" width="2" height="19.827"/>
				
					<rect x="291.849" y="-32.652" transform="matrix(-0.186 0.9825 -0.9825 -0.186 324.9816 -314.7057)" fill="#FFFFFF" width="2" height="19.827"/>
				
					<rect x="289.511" y="-9.206" transform="matrix(-0.0117 0.9999 -0.9999 -0.0117 294.6235 -289.7747)" fill="#FFFFFF" width="2" height="19.828"/>
				
					<rect x="291.336" y="14.594" transform="matrix(0.1675 0.9859 -0.9859 0.1675 267.5348 -267.8038)" fill="#FFFFFF" width="2" height="19.827"/>
				
					<rect x="297.175" y="36.748" transform="matrix(0.3423 0.9396 -0.9396 0.3423 239.967 -249.4768)" fill="#FFFFFF" width="2" height="19.827"/>
				
					<rect x="306.655" y="56.922" transform="matrix(0.5059 0.8626 -0.8626 0.5059 209.6679 -232.3585)" fill="#FFFFFF" width="2" height="19.827"/>
				
					<rect x="319.4" y="74.817" transform="matrix(0.6507 0.7593 -0.7593 0.6507 176.2506 -213.6922)" fill="#FFFFFF" width="2.001" height="19.827"/>
				
					<rect x="335.036" y="90.133" transform="matrix(0.7732 0.6341 -0.6341 0.7732 139.6407 -190.3988)" fill="#FFFFFF" width="2.001" height="19.827"/>
				
					<rect x="353.188" y="102.568" transform="matrix(0.8707 0.4918 -0.4918 0.8707 101.1018 -159.6373)" fill="#FFFFFF" width="2" height="19.827"/>
				
					<rect x="373.483" y="111.822" transform="matrix(0.9422 0.3349 -0.3349 0.9422 62.3977 -118.3889)" fill="#FFFFFF" width="2" height="19.828"/>
				
					<rect x="395.545" y="117.596" transform="matrix(0.9855 0.1695 -0.1695 0.9855 27.344 -65.3563)" fill="#FFFFFF" width="2" height="19.827"/>
				<rect x="419" y="120" fill="#FFFFFF" width="2" height="19"/>
			</g>
			<g>
				
					<rect x="407.235" y="129.486" transform="matrix(0.9962 0.0874 -0.0874 0.9962 13.3106 -35.1519)" fill="#FFFFFF" width="2.001" height="10"/>
				
					<rect x="431.599" y="129.434" transform="matrix(0.9957 -0.0923 0.0923 0.9957 -10.5613 40.5014)" fill="#FFFFFF" width="2" height="10.001"/>
				
					<rect x="454.898" y="125.179" transform="matrix(0.964 -0.266 0.266 0.964 -18.2029 125.9625)" fill="#FFFFFF" width="2.001" height="10"/>
				
					<rect x="476.719" y="117.063" transform="matrix(0.9035 -0.4286 0.4286 0.9035 -6.217 216.5138)" fill="#FFFFFF" width="2.001" height="10"/>
				
					<rect x="496.65" y="105.438" transform="matrix(0.818 -0.5753 0.5753 0.818 27.0572 306.3831)" fill="#FFFFFF" width="2" height="9.999"/>
				
					<rect x="514.277" y="90.646" transform="matrix(0.7089 -0.7053 0.7053 0.7089 82.522 391.2504)" fill="#FFFFFF" width="2" height="10"/>
				
					<rect x="529.187" y="73.037" transform="matrix(0.579 -0.8153 0.8153 0.579 159.574 465.1208)" fill="#FFFFFF" width="2" height="10"/>
				
					<rect x="540.967" y="52.956" transform="matrix(0.4293 -0.9032 0.9032 0.4293 256.9824 522.5751)" fill="#FFFFFF" width="2" height="10"/>
				
					<rect x="549.205" y="30.75" transform="matrix(0.2637 -0.9646 0.9646 0.2637 370.6447 557.0571)" fill="#FFFFFF" width="2" height="9.999"/>
				
					<rect x="553.486" y="6.765" transform="matrix(0.0874 -0.9962 0.9962 0.0874 494.2988 563.101)" fill="#FFFFFF" width="2" height="10"/>
				
					<rect x="553.434" y="-17.598" transform="matrix(-0.0923 -0.9957 0.9957 -0.0923 618.1385 538.308)" fill="#FFFFFF" width="2" height="10"/>
				
					<rect x="549.177" y="-40.897" transform="matrix(-0.2656 -0.9641 0.9641 -0.2656 730.9209 484.9822)" fill="#FFFFFF" width="2" height="10"/>
				
					<rect x="541.063" y="-62.718" transform="matrix(-0.4283 -0.9037 0.9037 -0.4283 826.3662 407.3993)" fill="#FFFFFF" width="2" height="10"/>
				
					<rect x="529.437" y="-82.65" transform="matrix(-0.5756 -0.8177 0.8177 -0.5756 899.2485 311.4146)" fill="#FFFFFF" width="2" height="10"/>
				
					<rect x="514.645" y="-100.277" transform="matrix(-0.7054 -0.7088 0.7088 -0.7054 946.9133 203.0117)" fill="#FFFFFF" width="2" height="10"/>
				
					<rect x="497.037" y="-115.187" transform="matrix(-0.8154 -0.5789 0.5789 -0.8154 967.9339 88.2546)" fill="#FFFFFF" width="2" height="10"/>
				
					<rect x="476.955" y="-126.968" transform="matrix(-0.9031 -0.4294 0.4294 -0.9031 961.9819 -26.9088)" fill="#FFFFFF" width="2" height="10"/>
				
					<rect x="454.75" y="-135.205" transform="matrix(-0.9646 -0.2636 0.2636 -0.9646 929.7032 -135.6635)" fill="#FFFFFF" width="2" height="10"/>
				
					<rect x="430.765" y="-139.487" transform="matrix(-0.9962 -0.0872 0.0872 -0.9962 873.6096 -230.8256)" fill="#FFFFFF" width="2" height="10"/>
				
					<rect x="406.402" y="-139.435" transform="matrix(-0.9958 0.0921 -0.0921 -0.9958 800.6985 -305.8016)" fill="#FFFFFF" width="2" height="10"/>
				
					<rect x="383.102" y="-135.178" transform="matrix(-0.964 0.266 -0.266 -0.964 719.738 -357.8398)" fill="#FFFFFF" width="2.001" height="10"/>
				
					<rect x="361.282" y="-127.063" transform="matrix(-0.9036 0.4284 -0.4284 -0.9036 637.3546 -387.5476)" fill="#FFFFFF" width="1.999" height="10"/>
				
					<rect x="341.35" y="-115.437" transform="matrix(-0.8177 0.5756 -0.5756 -0.8177 558.737 -397.8001)" fill="#FFFFFF" width="2" height="10"/>
				
					<rect x="323.724" y="-100.647" transform="matrix(-0.7086 0.7056 -0.7056 -0.7086 487.3212 -392.5568)" fill="#FFFFFF" width="2" height="10"/>
				
					<rect x="308.814" y="-83.038" transform="matrix(-0.5787 0.8155 -0.8155 -0.5787 425.4577 -375.8642)" fill="#FFFFFF" width="2" height="10"/>
				
					<rect x="297.033" y="-62.956" transform="matrix(-0.4293 0.9032 -0.9032 -0.4293 373.618 -352.0132)" fill="#FFFFFF" width="2" height="10"/>
				
					<rect x="288.795" y="-40.75" transform="matrix(-0.2637 0.9646 -0.9646 -0.2637 331.7216 -324.7162)" fill="#FFFFFF" width="2" height="10"/>
				
					<rect x="284.514" y="-16.766" transform="matrix(-0.0869 0.9962 -0.9962 -0.0869 298.6047 -297.2216)" fill="#FFFFFF" width="2" height="10.001"/>
				
					<rect x="284.567" y="7.597" transform="matrix(0.0923 0.9957 -0.9957 0.0923 271.7534 -272.9125)" fill="#FFFFFF" width="2" height="10.001"/>
				
					<rect x="288.823" y="30.897" transform="matrix(0.2661 0.9639 -0.9639 0.2661 247.2941 -253.0278)" fill="#FFFFFF" width="2" height="10"/>
				
					<rect x="296.939" y="52.718" transform="matrix(0.4283 0.9037 -0.9037 0.4283 222.499 -236.2336)" fill="#FFFFFF" width="2" height="10"/>
				
					<rect x="308.565" y="72.649" transform="matrix(0.5756 0.8177 -0.8177 0.5756 194.8791 -220.188)" fill="#FFFFFF" width="2" height="10"/>
				
					<rect x="323.355" y="90.276" transform="matrix(0.7055 0.7087 -0.7087 0.7055 163.0382 -201.811)" fill="#FFFFFF" width="2" height="10"/>
				
					<rect x="340.965" y="105.187" transform="matrix(0.8155 0.5787 -0.5787 0.8155 126.8417 -177.5687)" fill="#FFFFFF" width="2" height="10"/>
				
					<rect x="361.045" y="116.966" transform="matrix(0.9032 0.4292 -0.4292 0.9032 87.3779 -143.5714)" fill="#FFFFFF" width="2" height="10.001"/>
				
					<rect x="383.251" y="125.205" transform="matrix(0.9646 0.2636 -0.2636 0.9646 47.9152 -96.688)" fill="#FFFFFF" width="2" height="9.999"/>
				
					<rect x="407.235" y="129.486" transform="matrix(0.9962 0.0874 -0.0874 0.9962 13.3179 -35.1688)" fill="#FFFFFF" width="2" height="10"/>
			</g>
		</g>
	</g>
	<g id="To">
	</g>
	<g id="From">
	</g>
	<g id="Course_needle">
	</g>
	<g id="Course_deviation_indicator">
	</g>
	<g id="Heading_bug">
		<polygon fill="#FFFFFF" points="407.799,-139.467 408.5,-131.457 414.398,-132 418,-134.625 417.969,-139.984 		"/>
		<polygon fill="#FFFFFF" points="431.998,-139.467 431.297,-131.457 425.398,-132 421.797,-134.625 421.828,-139.984 		"/>
	</g>
	<g id="Plane">
	</g>
</g>
</svg>
