<?xml version="1.0" encoding="utf-8"?>
<!-- Generator: Adobe Illustrator 16.0.0, SVG Export Plug-In . SVG Version: 6.00 Build 0)  -->
<!DOCTYPE svg PUBLIC "-//W3C//DTD SVG 1.1//EN" "http://www.w3.org/Graphics/SVG/1.1/DTD/svg11.dtd">
<svg version="1.1" xmlns="http://www.w3.org/2000/svg" xmlns:xlink="http://www.w3.org/1999/xlink" x="0px" y="0px" width="400px"
	 height="400px" viewBox="0 0 400 400" enable-background="new 0 0 400 400" xml:space="preserve">
<g id="AI">
	<g id="Gimbal">
		<rect id="Ground" x="-430" y="200" fill="#754C24" width="180" height="200"/>
		<rect id="Air" x="-430" fill="#0071BC" width="180" height="200"/>
		<rect x="-360" y="179" fill="#FFFFFF" width="40" height="2"/>
		<rect x="-350" y="190" fill="#FFFFFF" width="20" height="2"/>
		<rect x="-350" y="169" fill="#FFFFFF" width="20" height="2"/>
		<rect x="-360" y="159" fill="#FFFFFF" width="40" height="2"/>
		<rect x="-320" y="177.5" fill="none" width="10" height="5"/>
		<text transform="matrix(1 0 0 1 -319.3096 181.9312)" fill="#FFFFFF" font-family="'CourierNewPS-BoldMT'" font-size="7">10</text>
		<rect x="-320" y="157.5" fill="none" width="10" height="5"/>
		<text transform="matrix(1 0 0 1 -319.2231 161.9312)" fill="#FFFFFF" font-family="'CourierNewPS-BoldMT'" font-size="7">20</text>
		<rect x="-370" y="177.5" fill="none" width="10" height="5"/>
		<text transform="matrix(1 0 0 1 -369.3096 181.9312)" fill="#FFFFFF" font-family="'CourierNewPS-BoldMT'" font-size="7">10</text>
		<rect x="-370" y="157.5" fill="none" width="10" height="5"/>
		<text transform="matrix(1 0 0 1 -369.2231 161.9312)" fill="#FFFFFF" font-family="'CourierNewPS-BoldMT'" font-size="7">20</text>
		<rect x="-350" y="149" fill="#FFFFFF" width="20" height="2"/>
		<rect x="-360" y="239" fill="#FFFFFF" width="40" height="2"/>
		<rect x="-350" y="250" fill="#FFFFFF" width="20" height="2"/>
		<rect x="-350" y="229" fill="#FFFFFF" width="20" height="2"/>
		<rect x="-360" y="219" fill="#FFFFFF" width="40" height="2"/>
		<rect x="-320" y="237.5" fill="none" width="10" height="5"/>
		<text transform="matrix(1 0 0 1 -319.3096 241.9312)" fill="#FFFFFF" font-family="'CourierNewPS-BoldMT'" font-size="7">10</text>
		<rect x="-320" y="217.5" fill="none" width="10" height="5"/>
		<text transform="matrix(1 0 0 1 -319.2231 221.9312)" fill="#FFFFFF" font-family="'CourierNewPS-BoldMT'" font-size="7">20</text>
		<rect x="-370" y="237.5" fill="none" width="10" height="5"/>
		<text transform="matrix(1 0 0 1 -369.3096 241.9312)" fill="#FFFFFF" font-family="'CourierNewPS-BoldMT'" font-size="7">10</text>
		<rect x="-370" y="217.5" fill="none" width="10" height="5"/>
		<text transform="matrix(1 0 0 1 -369.2231 221.9312)" fill="#FFFFFF" font-family="'CourierNewPS-BoldMT'" font-size="7">20</text>
		<rect x="-350" y="209" fill="#FFFFFF" width="20" height="2"/>
		<rect x="-430" y="199" fill="#FFFFFF" width="180" height="2"/>
	</g>
	<g id="Inner">
		<path id="Ring" fill="#B3B3B3" d="M-120,220c-44.183,0-80,35.817-80,80c0,44.183,35.817,80,80,80c44.183,0,80-35.817,80-80
			C-40,255.817-75.817,220-120,220z M-120,370c-38.66,0-70-31.34-70-70s31.34-70,70-70s70,31.34,70,70S-81.34,370-120,370z"/>
		<g id="Layer_6">
			<g>
				<path fill="#FFFFFF" d="M-180.612,265.005c0,0-0.175-0.01-0.47-0.047c-0.147-0.019-0.326-0.042-0.524-0.08
					c-0.1-0.018-0.206-0.037-0.318-0.056c-0.111-0.021-0.184-0.12-0.292-0.167c-0.813-0.469-1.896-1.095-2.98-1.721
					c-1.083-0.625-2.167-1.251-2.98-1.72c-0.093-0.073-0.217-0.083-0.287-0.176c-0.073-0.087-0.143-0.17-0.208-0.248
					c-0.128-0.159-0.24-0.298-0.332-0.413c-0.18-0.235-0.278-0.379-0.278-0.379s0.173,0.013,0.467,0.051
					c0.145,0.022,0.321,0.05,0.523,0.081c0.1,0.018,0.207,0.036,0.318,0.056c0.116,0.014,0.187,0.116,0.296,0.161
					c0.813,0.469,1.896,1.095,2.98,1.721c1.083,0.625,2.167,1.251,2.98,1.72c0.094,0.071,0.216,0.085,0.291,0.17
					c0.073,0.087,0.142,0.17,0.208,0.248c0.132,0.153,0.241,0.296,0.331,0.414C-180.708,264.859-180.612,265.005-180.612,265.005z"
					/>
			</g>
			<g>
				<path fill="#FFFFFF" d="M-50.718,260c0,0-0.096,0.146-0.275,0.383c-0.09,0.118-0.199,0.261-0.331,0.414
					c-0.064,0.078-0.134,0.161-0.207,0.248c-0.074,0.085-0.196,0.099-0.29,0.17c-0.813,0.469-1.896,1.094-2.979,1.719
					c-1.083,0.625-2.166,1.251-2.979,1.72c-0.109,0.044-0.18,0.147-0.296,0.161c-0.111,0.02-0.218,0.039-0.317,0.056
					c-0.202,0.031-0.378,0.059-0.523,0.081c-0.294,0.039-0.467,0.051-0.467,0.051s0.098-0.144,0.277-0.379
					c0.093-0.114,0.204-0.253,0.332-0.412c0.065-0.078,0.135-0.161,0.207-0.248c0.07-0.093,0.194-0.103,0.287-0.176
					c0.813-0.469,1.896-1.094,2.979-1.719c1.083-0.625,2.166-1.251,2.979-1.72c0.108-0.046,0.182-0.145,0.292-0.167
					c0.112-0.02,0.219-0.038,0.318-0.056c0.198-0.038,0.377-0.061,0.523-0.08C-50.893,260.01-50.718,260-50.718,260z"/>
			</g>
			<g>
				<path fill="#FFFFFF" d="M-80,230.718c0,0-0.01,0.175-0.047,0.47c-0.02,0.147-0.042,0.326-0.08,0.524
					c-0.018,0.1-0.036,0.207-0.056,0.318c-0.021,0.111-0.12,0.184-0.166,0.292c-0.47,0.813-1.095,1.897-1.721,2.98
					c-0.626,1.084-1.251,2.168-1.721,2.98c-0.072,0.094-0.083,0.218-0.176,0.288c-0.087,0.073-0.17,0.142-0.248,0.208
					c-0.159,0.128-0.298,0.24-0.412,0.332c-0.235,0.18-0.379,0.278-0.379,0.278s0.013-0.173,0.051-0.467
					c0.022-0.145,0.05-0.321,0.081-0.523c0.018-0.1,0.037-0.207,0.057-0.318c0.014-0.116,0.116-0.187,0.16-0.296
					c0.47-0.813,1.095-1.897,1.721-2.98c0.626-1.084,1.251-2.168,1.721-2.98c0.071-0.095,0.085-0.216,0.17-0.291
					c0.087-0.073,0.17-0.143,0.248-0.208c0.152-0.132,0.296-0.241,0.414-0.331C-80.146,230.814-80,230.718-80,230.718z"/>
			</g>
			<g>
				<path fill="#FFFFFF" d="M-160,230.718c0,0,0.146,0.096,0.383,0.275c0.118,0.09,0.261,0.199,0.414,0.331
					c0.078,0.065,0.161,0.134,0.248,0.208c0.085,0.074,0.099,0.196,0.17,0.29c0.469,0.813,1.094,1.896,1.719,2.979
					c0.625,1.083,1.251,2.166,1.72,2.978c0.044,0.11,0.147,0.181,0.161,0.296c0.02,0.112,0.039,0.218,0.056,0.318
					c0.031,0.202,0.059,0.378,0.081,0.523c0.039,0.293,0.051,0.467,0.051,0.467s-0.144-0.098-0.379-0.278
					c-0.114-0.092-0.253-0.204-0.412-0.332c-0.078-0.065-0.161-0.134-0.248-0.208c-0.093-0.069-0.103-0.193-0.176-0.287
					c-0.469-0.813-1.094-1.896-1.719-2.979c-0.625-1.083-1.251-2.166-1.72-2.978c-0.046-0.109-0.145-0.182-0.167-0.292
					c-0.02-0.112-0.038-0.219-0.056-0.318c-0.038-0.198-0.061-0.377-0.08-0.524C-159.99,230.893-160,230.718-160,230.718z"/>
			</g>
			<g id="_x34_5">
				<path fill="#FFFFFF" d="M-70.507,250.507c0,0,0.001-0.113,0.02-0.294c0.009-0.09,0.021-0.2,0.043-0.316
					c0.01-0.06,0.021-0.123,0.032-0.189c0.013-0.065,0.089-0.071,0.121-0.124c0.342-0.342,0.797-0.797,1.253-1.253
					c0.455-0.456,0.911-0.911,1.253-1.253c0.054-0.031,0.058-0.11,0.129-0.116c0.066-0.012,0.129-0.022,0.188-0.032
					c0.116-0.022,0.226-0.034,0.315-0.044c0.18-0.02,0.29-0.023,0.29-0.023s-0.003,0.11-0.022,0.291
					c-0.011,0.089-0.022,0.198-0.045,0.315c-0.01,0.059-0.021,0.123-0.032,0.189c-0.007,0.071-0.085,0.074-0.116,0.128
					c-0.342,0.342-0.797,0.797-1.253,1.253c-0.455,0.456-0.911,0.911-1.253,1.253c-0.053,0.033-0.059,0.108-0.124,0.121
					c-0.066,0.011-0.13,0.022-0.188,0.032c-0.116,0.022-0.227,0.034-0.316,0.043C-70.394,250.506-70.507,250.507-70.507,250.507z"/>
			</g>
			<g id="_x2D_10">
				<path fill="#FFFFFF" d="M-132.153,231.077c0,0-0.092-0.064-0.229-0.181c-0.068-0.058-0.151-0.129-0.233-0.213
					c-0.043-0.042-0.088-0.085-0.136-0.132c-0.046-0.047-0.007-0.111-0.032-0.167c-0.083-0.468-0.193-1.093-0.303-1.718
					c-0.11-0.625-0.22-1.249-0.303-1.717c0.006-0.062-0.057-0.108-0.021-0.17c0.029-0.06,0.057-0.117,0.083-0.17
					c0.049-0.107,0.103-0.202,0.145-0.28c0.087-0.156,0.148-0.248,0.148-0.248s0.088,0.065,0.224,0.182
					c0.067,0.059,0.149,0.13,0.232,0.213c0.042,0.042,0.088,0.086,0.136,0.132c0.055,0.045,0.012,0.111,0.038,0.167
					c0.083,0.468,0.193,1.093,0.303,1.718c0.11,0.625,0.22,1.249,0.303,1.717c-0.004,0.061,0.054,0.109,0.027,0.168
					c-0.029,0.06-0.057,0.117-0.083,0.171c-0.048,0.106-0.103,0.202-0.146,0.28C-132.089,230.985-132.153,231.077-132.153,231.077z"
					/>
			</g>
			<g>
				<path fill="#FFFFFF" d="M-96.056,234.214c0,0-0.047-0.103-0.106-0.276c-0.029-0.086-0.065-0.191-0.094-0.306
					c-0.016-0.058-0.032-0.12-0.05-0.186c-0.016-0.065,0.05-0.103,0.058-0.165c0.166-0.457,0.388-1.066,0.609-1.675
					c0.222-0.609,0.443-1.218,0.609-1.675c0.036-0.052,0.006-0.125,0.068-0.161c0.055-0.039,0.107-0.075,0.157-0.11
					c0.097-0.07,0.191-0.127,0.268-0.175c0.155-0.094,0.254-0.145,0.254-0.145s0.043,0.102,0.102,0.274
					c0.028,0.086,0.063,0.19,0.093,0.306c0.016,0.059,0.032,0.121,0.05,0.186c0.024,0.067-0.046,0.104-0.052,0.167
					c-0.166,0.457-0.388,1.066-0.609,1.675c-0.222,0.609-0.443,1.218-0.609,1.675c-0.034,0.052-0.009,0.124-0.062,0.163
					c-0.056,0.039-0.108,0.076-0.158,0.11c-0.096,0.07-0.19,0.127-0.269,0.174C-95.953,234.165-96.056,234.214-96.056,234.214z"/>
			</g>
			<g>
				<path fill="#FFFFFF" d="M-107.845,231.067c0,0-0.063-0.093-0.153-0.252c-0.043-0.079-0.097-0.175-0.146-0.284
					c-0.025-0.054-0.053-0.112-0.082-0.173c-0.026-0.061,0.032-0.109,0.028-0.171c0.084-0.476,0.195-1.11,0.308-1.744
					c0.111-0.634,0.224-1.268,0.308-1.744c0.026-0.057-0.017-0.123,0.038-0.169c0.048-0.047,0.094-0.092,0.137-0.134
					c0.082-0.085,0.165-0.158,0.232-0.217c0.136-0.119,0.225-0.185,0.225-0.185s0.061,0.092,0.147,0.251
					c0.043,0.079,0.096,0.175,0.145,0.283c0.026,0.054,0.054,0.112,0.082,0.173c0.035,0.062-0.026,0.11-0.021,0.172
					c-0.084,0.476-0.195,1.11-0.308,1.744c-0.111,0.634-0.224,1.268-0.308,1.744c-0.024,0.057,0.014,0.123-0.032,0.17
					c-0.048,0.047-0.093,0.092-0.136,0.135c-0.082,0.085-0.166,0.157-0.234,0.217C-107.753,231.002-107.845,231.067-107.845,231.067
					z"/>
			</g>
			<g>
				<path fill="#FFFFFF" d="M-169.493,250.507c0,0-0.109,0.003-0.283-0.008c-0.086-0.006-0.192-0.013-0.303-0.031
					c-0.057-0.008-0.117-0.016-0.181-0.024c-0.062-0.01-0.065-0.083-0.115-0.112c-0.318-0.318-0.742-0.741-1.165-1.165
					c-0.424-0.423-0.847-0.847-1.165-1.165c-0.028-0.051-0.104-0.051-0.108-0.12c-0.008-0.063-0.017-0.124-0.024-0.181
					c-0.017-0.112-0.024-0.217-0.032-0.303c-0.012-0.173-0.012-0.279-0.012-0.279s0.106,0,0.279,0.012
					c0.085,0.007,0.191,0.015,0.303,0.032c0.057,0.008,0.117,0.016,0.181,0.024c0.069,0.004,0.069,0.08,0.12,0.108
					c0.318,0.318,0.742,0.741,1.165,1.165c0.424,0.423,0.847,0.847,1.165,1.165c0.029,0.05,0.102,0.053,0.112,0.115
					c0.009,0.064,0.017,0.125,0.024,0.181c0.018,0.111,0.025,0.217,0.031,0.303C-169.49,250.398-169.493,250.507-169.493,250.507z"
					/>
			</g>
			<g>
				<path fill="#FFFFFF" d="M-143.946,234.209c0,0-0.101-0.046-0.256-0.136c-0.077-0.045-0.17-0.099-0.266-0.166
					c-0.049-0.033-0.101-0.068-0.156-0.105c-0.053-0.038-0.026-0.107-0.06-0.157c-0.161-0.441-0.375-1.029-0.589-1.617
					c-0.214-0.588-0.428-1.176-0.588-1.617c-0.005-0.061-0.074-0.095-0.049-0.161c0.018-0.064,0.036-0.124,0.052-0.181
					c0.03-0.112,0.067-0.214,0.096-0.298c0.06-0.167,0.104-0.267,0.104-0.267s0.098,0.048,0.251,0.138
					c0.076,0.045,0.169,0.1,0.264,0.167c0.049,0.033,0.101,0.068,0.156,0.104c0.061,0.035,0.03,0.106,0.065,0.155
					c0.161,0.441,0.375,1.029,0.589,1.617c0.214,0.588,0.428,1.176,0.588,1.617c0.007,0.06,0.072,0.096,0.056,0.159
					c-0.018,0.063-0.036,0.124-0.052,0.181c-0.03,0.112-0.066,0.214-0.097,0.298C-143.899,234.109-143.946,234.209-143.946,234.209z
					"/>
			</g>
			<polygon fill="#FFFFFF" points="-120,219.813 -123.313,219.852 -120,229.969 -116.688,219.852 			"/>
		</g>
	</g>
	<g id="Outer">
		<path id="Cover" fill="#1A1A1A" d="M-220,200v200h200V200H-220z M-119.022,396.156c-53.521,0-96.909-43.387-96.909-96.91
			c0-53.521,43.388-96.909,96.909-96.909s96.909,43.388,96.909,96.909C-22.113,352.77-65.501,396.156-119.022,396.156z"/>
		<path fill="#808080" d="M-120,200c-55.229,0-100,44.771-100,100s44.771,100,100,100s100-44.771,100-100S-64.771,200-120,200z
			 M-120,380c-44.183,0-80-35.816-80-80c0-44.183,35.817-80,80-80c44.184,0,80,35.817,80,80C-40,344.184-75.816,380-120,380z"/>
		<polygon fill="#FFFF00" points="-120,240.178 -116.688,240.139 -120,230.022 -123.313,240.139 		"/>
		<g id="Layer_4">
			<polyline fill="none" stroke="#FFFF00" stroke-width="2" stroke-miterlimit="10" points="-172,300 -154.889,300 
				-137.444,317.584 -120,300.208 -102.556,317.549 -85.111,300 -68,300 			"/>
			<circle fill="#FFFF00" cx="-120" cy="300" r="2"/>
		</g>
	</g>
</g>
<g id="HSI">
	<g id="Outer_1_" display="none">
		<rect display="inline" fill="#1A1A1A" width="400" height="400"/>
		<path display="inline" fill="#808080" d="M200,0C89.543,0,0,89.543,0,200s89.543,200,200,200s200-89.543,200-200S310.457,0,200,0z
			 M200,360c-88.365,0-160-71.633-160-160c0-88.365,71.635-160,160-160c88.367,0,160,71.635,160,160
			C360,288.367,288.367,360,200,360z"/>
	</g>
	<g id="Bearing_pointer" display="none">
		<g display="inline">
			<g>
				<line fill="none" stroke="#00FF00" stroke-width="2" stroke-miterlimit="10" x1="200" y1="357" x2="200" y2="53"/>
				<g>
					<polygon fill="#00FF00" points="206.98,55 200.001,42.911 193.02,55 					"/>
				</g>
			</g>
		</g>
	</g>
	<g id="Compass">
		<circle fill="#808080" cx="200" cy="200" r="140"/>
		<g id="Text">
			<circle fill="none" cx="200" cy="200" r="120"/>
			
				<text transform="matrix(0.9999 0.0162 -0.0162 0.9999 194.3672 94.2368)" fill="#FFFFFF" font-family="'CourierNewPS-BoldMT'" font-size="18">N</text>
			<circle fill="none" cx="200" cy="200" r="120"/>
			
				<text transform="matrix(0.8656 0.5008 -0.5008 0.8656 248.1553 105.7529)" fill="#FFFFFF" font-family="'CourierNewPS-BoldMT'" font-size="18">3</text>
			<circle fill="none" cx="200" cy="200" r="120"/>
			
				<text transform="matrix(0.4975 0.8675 -0.8675 0.4975 289.0547 142.8296)" fill="#FFFFFF" font-family="'CourierNewPS-BoldMT'" font-size="18">6</text>
			<circle fill="none" cx="200" cy="200" r="120"/>
			
				<text transform="matrix(-0.0162 0.9999 -0.9999 -0.0162 305.7617 194.3672)" fill="#FFFFFF" font-family="'CourierNewPS-BoldMT'" font-size="18">E</text>
			<circle fill="none" cx="200" cy="200" r="120"/>
			<text transform="matrix(-0.456 0.89 -0.89 -0.456 296.5742 243.311)"><tspan x="0" y="0" fill="#FFFFFF" font-family="'CourierNewPS-BoldMT'" font-size="18">1</tspan><tspan x="10.756" y="-0.002" fill="#FFFFFF" font-family="'CourierNewPS-BoldMT'" font-size="18" rotate="5.834">2</tspan></text>
			<circle fill="none" cx="200" cy="200" r="120"/>
			<text transform="matrix(-0.839 0.5442 -0.5442 -0.839 261.9443 285.7949)"><tspan x="0" y="0" fill="#FFFFFF" font-family="'CourierNewPS-BoldMT'" font-size="18">1</tspan><tspan x="10.756" y="-0.003" fill="#FFFFFF" font-family="'CourierNewPS-BoldMT'" font-size="18" rotate="5.835">5</tspan></text>
			<circle fill="none" cx="199.998" cy="200" r="120"/>
			
				<text transform="matrix(-0.9999 -0.0162 0.0162 -0.9999 205.6328 305.7607)" fill="#FFFFFF" font-family="'CourierNewPS-BoldMT'" font-size="18">S</text>
			<circle fill="none" cx="199.998" cy="200" r="120"/>
			<text transform="matrix(-0.89 -0.4559 0.4559 -0.89 156.708 296.5815)"><tspan x="0" y="0" fill="#FFFFFF" font-family="'CourierNewPS-BoldMT'" font-size="18">2</tspan><tspan x="10.735" y="-0.002" fill="#FFFFFF" font-family="'CourierNewPS-BoldMT'" font-size="18" rotate="5.823">1</tspan></text>
			<circle fill="none" cx="199.998" cy="200" r="120"/>
			<text transform="matrix(-0.5441 -0.839 0.839 -0.5441 114.2061 261.9438)"><tspan x="0" y="0" fill="#FFFFFF" font-family="'CourierNewPS-BoldMT'" font-size="18">2</tspan><tspan x="10.735" y="-0.003" fill="#FFFFFF" font-family="'CourierNewPS-BoldMT'" font-size="18" rotate="5.823">4</tspan></text>
			<circle fill="none" cx="199.998" cy="200" r="120"/>
			
				<text transform="matrix(0.0162 -0.9999 0.9999 0.0162 94.2354 205.6338)" fill="#FFFFFF" font-family="'CourierNewPS-BoldMT'" font-size="18">W</text>
			<circle fill="none" cx="199.998" cy="200" r="120"/>
			<text transform="matrix(0.456 -0.89 0.89 0.456 103.4229 156.6899)"><tspan x="0" y="0" fill="#FFFFFF" font-family="'CourierNewPS-BoldMT'" font-size="18">3</tspan><tspan x="10.756" y="-0.002" fill="#FFFFFF" font-family="'CourierNewPS-BoldMT'" font-size="18" rotate="5.834">0</tspan></text>
			<circle fill="none" cx="199.998" cy="200" r="120"/>
			<text transform="matrix(0.839 -0.5442 0.5442 0.839 138.0527 114.2061)"><tspan x="0" y="0" fill="#FFFFFF" font-family="'CourierNewPS-BoldMT'" font-size="18">3</tspan><tspan x="10.756" y="-0.003" fill="#FFFFFF" font-family="'CourierNewPS-BoldMT'" font-size="18" rotate="5.835">3</tspan></text>
		</g>
		<g id="Layer_21">
			<g>
				<rect x="199" y="319.587" fill="#FFFFFF" width="2" height="19.826"/>
				
					<rect x="222.456" y="317.597" transform="matrix(0.9854 -0.1705 0.1705 0.9854 -52.5673 42.8934)" fill="#FFFFFF" width="1.999" height="19.826"/>
				
					<rect x="244.518" y="311.824" transform="matrix(0.9417 -0.3364 0.3364 0.9417 -93.9156 101.3316)" fill="#FFFFFF" width="2" height="19.826"/>
				
					<rect x="264.813" y="302.569" transform="matrix(0.8702 -0.4927 0.4927 0.8702 -119.4601 171.534)" fill="#FFFFFF" width="2" height="19.826"/>
				
					<rect x="282.966" y="290.135" transform="matrix(0.7722 -0.6354 0.6354 0.7722 -125.9592 248.7961)" fill="#FFFFFF" width="1.999" height="19.826"/>
				
					<rect x="298.601" y="274.819" transform="matrix(0.6495 -0.7604 0.7604 0.6495 -111.4893 327.6018)" fill="#FFFFFF" width="2" height="19.826"/>
				
					<rect x="311.346" y="256.923" transform="matrix(0.5044 -0.8635 0.8635 0.5044 -75.6021 401.9584)" fill="#FFFFFF" width="2" height="19.827"/>
				
					<rect x="320.825" y="236.748" transform="matrix(0.3409 -0.9401 0.9401 0.3409 -19.7669 465.1296)" fill="#FFFFFF" width="2" height="19.827"/>
				
					<rect x="326.665" y="214.595" transform="matrix(0.1655 -0.9862 0.9862 0.1655 52.0106 510.4846)" fill="#FFFFFF" width="2" height="19.826"/>
				
					<rect x="328.49" y="190.796" transform="matrix(-0.0132 -0.9999 0.9999 -0.0132 133.1419 532.8157)" fill="#FFFFFF" width="2" height="19.826"/>
				
					<rect x="326.15" y="167.35" transform="matrix(-0.187 -0.9824 0.9824 -0.187 214.1915 531.7905)" fill="#FFFFFF" width="2" height="19.826"/>
				
					<rect x="319.966" y="145.3" transform="matrix(-0.353 -0.9356 0.9356 -0.353 289.0648 510.3075)" fill="#FFFFFF" width="2" height="19.826"/>
				
					<rect x="310.292" y="125.008" transform="matrix(-0.5063 -0.8624 0.8624 -0.5063 352.5301 471.679)" fill="#FFFFFF" width="2" height="19.826"/>
				
					<rect x="297.488" y="106.84" transform="matrix(-0.6433 -0.7656 0.7656 -0.6433 401.1076 420.3896)" fill="#FFFFFF" width="1.999" height="19.826"/>
				
					<rect x="281.909" y="91.159" transform="matrix(-0.7627 -0.6467 0.6467 -0.7627 433.3184 361.1297)" fill="#FFFFFF" width="2" height="19.826"/>
				
					<rect x="263.913" y="78.329" transform="matrix(-0.8613 -0.5081 0.5081 -0.8613 448.2573 298.8382)" fill="#FFFFFF" width="2" height="19.826"/>
				
					<rect x="243.858" y="68.715" transform="matrix(-0.9363 -0.3512 0.3512 -0.9363 446.5002 238.2477)" fill="#FFFFFF" width="2.001" height="19.826"/>
				
					<rect x="222.101" y="62.679" transform="matrix(-0.9838 -0.1794 0.1794 -0.9838 429.558 184.036)" fill="#FFFFFF" width="2" height="19.826"/>
				<rect x="199" y="60.587" fill="#FFFFFF" width="2" height="19.826"/>
				
					<rect x="175.899" y="62.679" transform="matrix(-0.9835 0.1807 -0.1807 -0.9835 364.0029 112.0263)" fill="#FFFFFF" width="2" height="19.827"/>
				
					<rect x="154.142" y="68.715" transform="matrix(-0.9358 0.3526 -0.3526 -0.9358 328.0448 97.4993)" fill="#FFFFFF" width="2" height="19.827"/>
				
					<rect x="134.087" y="78.329" transform="matrix(-0.8606 0.5094 -0.5094 -0.8606 296.2838 95.3739)" fill="#FFFFFF" width="2.001" height="19.827"/>
				
					<rect x="116.091" y="91.159" transform="matrix(-0.7617 0.6479 -0.6479 -0.7617 271.7675 102.1917)" fill="#FFFFFF" width="2" height="19.827"/>
				
					<rect x="100.513" y="106.839" transform="matrix(-0.6422 0.7665 -0.7665 -0.6422 256.1995 113.9228)" fill="#FFFFFF" width="2" height="19.827"/>
				
					<rect x="87.708" y="125.007" transform="matrix(-0.5049 0.8631 -0.8631 -0.5049 249.9567 126.4804)" fill="#FFFFFF" width="2" height="19.827"/>
				
					<rect x="78.034" y="145.298" transform="matrix(-0.3516 0.9361 -0.9361 -0.3516 252.1242 135.7971)" fill="#FFFFFF" width="2" height="19.827"/>
				
					<rect x="71.849" y="167.348" transform="matrix(-0.186 0.9825 -0.9825 -0.186 260.5682 138.6572)" fill="#FFFFFF" width="2" height="19.827"/>
				
					<rect x="69.511" y="190.794" transform="matrix(-0.0117 0.9999 -0.9999 -0.0117 272.0312 132.5543)" fill="#FFFFFF" width="2" height="19.828"/>
				
					<rect x="71.336" y="214.594" transform="matrix(0.1675 0.9859 -0.9859 0.1675 281.5567 115.5913)" fill="#FFFFFF" width="2" height="19.827"/>
				
					<rect x="77.175" y="236.748" transform="matrix(0.3423 0.9396 -0.9396 0.3423 283.1841 88.7864)" fill="#FFFFFF" width="2" height="19.827"/>
				
					<rect x="86.655" y="256.922" transform="matrix(0.5059 0.8626 -0.8626 0.5059 273.4832 56.2355)" fill="#FFFFFF" width="2" height="19.827"/>
				
					<rect x="99.4" y="274.817" transform="matrix(0.6507 0.7593 -0.7593 0.6507 251.2721 23.2172)" fill="#FFFFFF" width="2.001" height="19.827"/>
				
					<rect x="115.036" y="290.133" transform="matrix(0.7732 0.6341 -0.6341 0.7732 216.5763 -5.5414)" fill="#FFFFFF" width="2.001" height="19.827"/>
				
					<rect x="133.188" y="302.568" transform="matrix(0.8707 0.4918 -0.4918 0.8707 171.0152 -25.5938)" fill="#FFFFFF" width="2" height="19.827"/>
				
					<rect x="153.483" y="311.822" transform="matrix(0.9422 0.3349 -0.3349 0.9422 116.6752 -33.1578)" fill="#FFFFFF" width="2" height="19.828"/>
				
					<rect x="175.545" y="317.596" transform="matrix(0.9855 0.1695 -0.1695 0.9855 58.055 -25.1812)" fill="#FFFFFF" width="2" height="19.827"/>
				<rect x="199" y="320" fill="#FFFFFF" width="2" height="19"/>
			</g>
			<g>
				
					<rect x="187.235" y="329.486" transform="matrix(0.9962 0.0874 -0.0874 0.9962 29.9427 -15.1665)" fill="#FFFFFF" width="2.001" height="10"/>
				
					<rect x="211.599" y="329.434" transform="matrix(0.9957 -0.0923 0.0923 0.9957 -29.9598 21.0497)" fill="#FFFFFF" width="2" height="10.001"/>
				
					<rect x="234.898" y="325.179" transform="matrix(0.964 -0.266 0.266 0.964 -79.3307 74.6467)" fill="#FFFFFF" width="2.001" height="10"/>
				
					<rect x="256.719" y="317.063" transform="matrix(0.9035 -0.4286 0.4286 0.9035 -113.1588 141.5269)" fill="#FFFFFF" width="2.001" height="10"/>
				
					<rect x="276.65" y="305.438" transform="matrix(0.818 -0.5753 0.5753 0.818 -128.0425 216.2315)" fill="#FFFFFF" width="2" height="9.999"/>
				
					<rect x="294.277" y="290.646" transform="matrix(0.7089 -0.7053 0.7053 0.7089 -122.567 294.3032)" fill="#FFFFFF" width="2" height="10"/>
				
					<rect x="309.187" y="273.037" transform="matrix(0.579 -0.8153 0.8153 0.579 -96.1046 369.9479)" fill="#FFFFFF" width="2" height="10"/>
				
					<rect x="320.967" y="252.956" transform="matrix(0.4293 -0.9032 0.9032 0.4293 -49.2194 438.0241)" fill="#FFFFFF" width="2" height="10"/>
				
					<rect x="329.205" y="230.75" transform="matrix(0.2637 -0.9646 0.9646 0.2637 15.7309 492.1076)" fill="#FFFFFF" width="2" height="9.999"/>
				
					<rect x="333.486" y="206.765" transform="matrix(0.0874 -0.9962 0.9962 0.0874 94.2943 526.4612)" fill="#FFFFFF" width="2" height="10"/>
				
					<rect x="333.434" y="182.402" transform="matrix(-0.0923 -0.9957 0.9957 -0.0923 178.6915 537.7015)" fill="#FFFFFF" width="2" height="10"/>
				
					<rect x="329.177" y="159.103" transform="matrix(-0.2656 -0.9641 0.9641 -0.2656 259.6696 526.0081)" fill="#FFFFFF" width="2" height="10"/>
				
					<rect x="321.063" y="137.282" transform="matrix(-0.4283 -0.9037 0.9037 -0.4283 331.4174 494.2485)" fill="#FFFFFF" width="2" height="10"/>
				
					<rect x="309.437" y="117.35" transform="matrix(-0.5756 -0.8177 0.8177 -0.5756 389.071 446.6302)" fill="#FFFFFF" width="2" height="10"/>
				
					<rect x="294.645" y="99.723" transform="matrix(-0.7054 -0.7088 0.7088 -0.7054 429.9635 388.1519)" fill="#FFFFFF" width="2" height="10"/>
				
					<rect x="277.037" y="84.813" transform="matrix(-0.8154 -0.5789 0.5789 -0.8154 452.7681 323.9919)" fill="#FFFFFF" width="2" height="10"/>
				
					<rect x="256.955" y="73.032" transform="matrix(-0.9031 -0.4294 0.4294 -0.9031 457.421 259.2601)" fill="#FFFFFF" width="2" height="10"/>
				
					<rect x="234.75" y="64.795" transform="matrix(-0.9646 -0.2636 0.2636 -0.9646 444.7624 199.2674)" fill="#FFFFFF" width="2" height="10"/>
				
					<rect x="210.765" y="60.513" transform="matrix(-0.9962 -0.0872 0.0872 -0.9962 417.0136 149.2364)" fill="#FFFFFF" width="2" height="10"/>
				
					<rect x="186.402" y="60.565" transform="matrix(-0.9958 0.0921 -0.0921 -0.9958 380.0436 113.6012)" fill="#FFFFFF" width="2" height="10"/>
				
					<rect x="163.102" y="64.822" transform="matrix(-0.964 0.266 -0.266 -0.964 340.8658 93.476)" fill="#FFFFFF" width="2.001" height="10"/>
				
					<rect x="141.282" y="72.937" transform="matrix(-0.9036 0.4284 -0.4284 -0.9036 304.2326 87.4131)" fill="#FFFFFF" width="1.999" height="10"/>
				
					<rect x="121.35" y="84.563" transform="matrix(-0.8177 0.5756 -0.5756 -0.8177 273.9526 92.3774)" fill="#FFFFFF" width="2" height="10"/>
				
					<rect x="103.724" y="99.353" transform="matrix(-0.7086 0.7056 -0.7056 -0.7086 252.5637 104.3981)" fill="#FFFFFF" width="2" height="10"/>
				
					<rect x="88.814" y="116.962" transform="matrix(-0.5787 0.8155 -0.8155 -0.5787 241.2538 119.2945)" fill="#FFFFFF" width="2" height="10"/>
				
					<rect x="77.033" y="137.044" transform="matrix(-0.4293 0.9032 -0.9032 -0.4293 239.8199 132.5378)" fill="#FFFFFF" width="2" height="10"/>
				
					<rect x="68.795" y="159.25" transform="matrix(-0.2637 0.9646 -0.9646 -0.2637 246.6353 140.2334)" fill="#FFFFFF" width="2" height="10"/>
				
					<rect x="64.514" y="183.234" transform="matrix(-0.0869 0.9962 -0.9962 -0.0869 258.7293 139.3268)" fill="#FFFFFF" width="2" height="10.001"/>
				
					<rect x="64.567" y="207.597" transform="matrix(0.0923 0.9957 -0.9957 0.0923 271.205 127.689)" fill="#FFFFFF" width="2" height="10.001"/>
				
					<rect x="68.823" y="230.897" transform="matrix(0.2661 0.9639 -0.9639 0.2661 278.6305 105.8118)" fill="#FFFFFF" width="2" height="10"/>
				
					<rect x="76.939" y="252.718" transform="matrix(0.4283 0.9037 -0.9037 0.4283 277.4479 76.9171)" fill="#FFFFFF" width="2" height="10"/>
				
					<rect x="88.565" y="272.649" transform="matrix(0.5756 0.8177 -0.8177 0.5756 265.0566 44.5963)" fill="#FFFFFF" width="2" height="10"/>
				
					<rect x="103.355" y="290.276" transform="matrix(0.7055 0.7087 -0.7087 0.7055 239.9906 12.9976)" fill="#FFFFFF" width="2" height="10"/>
				
					<rect x="120.965" y="305.187" transform="matrix(0.8155 0.5787 -0.5787 0.8155 202.0004 -13.3647)" fill="#FFFFFF" width="2" height="10"/>
				
					<rect x="141.045" y="316.966" transform="matrix(0.9032 0.4292 -0.4292 0.9032 151.9198 -29.803)" fill="#FFFFFF" width="2" height="10.001"/>
				
					<rect x="163.251" y="325.205" transform="matrix(0.9646 0.2636 -0.2636 0.9646 92.856 -31.6189)" fill="#FFFFFF" width="2" height="9.999"/>
				
					<rect x="187.235" y="329.486" transform="matrix(0.9962 0.0874 -0.0874 0.9962 29.9577 -15.1732)" fill="#FFFFFF" width="2" height="10"/>
			</g>
		</g>
	</g>
	<g id="To">
	</g>
	<g id="From">
	</g>
	<g id="Course_needle">
	</g>
	<g id="Course_deviation_indicator">
	</g>
	<g id="Heading_bug" display="none">
		<polygon display="inline" fill="#FFFFFF" points="187.799,60.533 188.5,68.543 194.398,68 198,65.375 197.969,60.016 		"/>
		<polygon display="inline" fill="#FFFFFF" points="211.998,60.533 211.297,68.543 205.398,68 201.797,65.375 201.828,60.016 		"/>
	</g>
	<g id="Plane">
	</g>
</g>
</svg>
