<?xml version="1.0" encoding="utf-8"?>
<!-- Generator: Adobe Illustrator 16.0.0, SVG Export Plug-In . SVG Version: 6.00 Build 0)  -->
<!DOCTYPE svg PUBLIC "-//W3C//DTD SVG 1.1//EN" "http://www.w3.org/Graphics/SVG/1.1/DTD/svg11.dtd">
<svg version="1.1" xmlns="http://www.w3.org/2000/svg" xmlns:xlink="http://www.w3.org/1999/xlink" x="0px" y="0px" width="400px"
	 height="400px" viewBox="-146.5 1.5 400 400" enable-background="new -146.5 1.5 400 400" xml:space="preserve">
<g id="HSI">
	<g id="Outer_1_" display="none">
		<rect x="-146.5" y="1.5" display="inline" fill="#1A1A1A" width="400" height="400"/>
		<path display="inline" fill="#808080" d="M53.5,1.5c-110.457,0-200,89.543-200,200s89.543,200,200,200s200-89.543,200-200
			S163.957,1.5,53.5,1.5z M53.5,361.5c-88.364,0-160-71.633-160-160c0-88.364,71.636-160,160-160c88.367,0,160,71.636,160,160
			C213.5,289.867,141.867,361.5,53.5,361.5z"/>
		
			<line display="inline" fill="#F2F2F2" stroke="#FFFFFF" stroke-width="2" stroke-miterlimit="10" x1="53.5" y1="58.891" x2="53.5" y2="24"/>
		
			<line display="inline" fill="#F2F2F2" stroke="#FFFFFF" stroke-width="2" stroke-miterlimit="10" x1="154.34" y1="100.66" x2="169.465" y2="85.534"/>
		
			<line display="inline" fill="#F2F2F2" stroke="#FFFFFF" stroke-width="2" stroke-miterlimit="10" x1="196.109" y1="201.499" x2="217.5" y2="201.5"/>
		
			<line display="inline" fill="#F2F2F2" stroke="#FFFFFF" stroke-width="2" stroke-miterlimit="10" x1="-89.109" y1="201.5" x2="-110.5" y2="201.5"/>
		
			<line display="inline" fill="#F2F2F2" stroke="#FFFFFF" stroke-width="2" stroke-miterlimit="10" x1="-47.341" y1="100.66" x2="-62.466" y2="85.534"/>
		
			<line display="inline" fill="#F2F2F2" stroke="#FFFFFF" stroke-width="2" stroke-miterlimit="10" x1="53.365" y1="344.11" x2="53.345" y2="365.502"/>
		
			<line display="inline" fill="#F2F2F2" stroke="#FFFFFF" stroke-width="2" stroke-miterlimit="10" x1="-47.435" y1="302.246" x2="-62.575" y2="317.357"/>
		
			<line display="inline" fill="#F2F2F2" stroke="#FFFFFF" stroke-width="2" stroke-miterlimit="10" x1="154.244" y1="302.436" x2="169.355" y2="317.577"/>
	</g>
	<g id="Bearing_pointer" display="none">
		<g display="inline">
			<g>
				<line fill="none" stroke="#00FF00" stroke-width="2" stroke-miterlimit="10" x1="53.5" y1="357.5" x2="53.5" y2="55.546"/>
				<g>
					<polygon fill="#00FF00" points="60.481,57.589 53.5,45.5 46.519,57.589 					"/>
				</g>
			</g>
		</g>
	</g>
	<g id="Compass" display="none">
		<circle display="inline" fill="#808080" cx="53.5" cy="201.5" r="140"/>
		<g id="Text" display="inline">
			<circle fill="none" cx="53.5" cy="201.5" r="120"/>
			
				<text transform="matrix(0.9999 0.0162 -0.0162 0.9999 47.8738 95.7507)" fill="#FFFFFF" font-family="'CourierNewPS-BoldMT'" font-size="18.0006">N</text>
			<circle fill="none" cx="53.5" cy="201.5" r="120"/>
			
				<text transform="matrix(0.8656 0.5008 -0.5008 0.8656 101.6414 107.2029)" fill="#FFFFFF" font-family="'CourierNewPS-BoldMT'" font-size="18.0006">3</text>
			<circle fill="none" cx="53.5" cy="201.5" r="120"/>
			
				<text transform="matrix(0.4975 0.8675 -0.8675 0.4975 142.4968 144.3113)" fill="#FFFFFF" font-family="'CourierNewPS-BoldMT'" font-size="18.0006">6</text>
			<circle fill="none" cx="53.5" cy="201.5" r="120"/>
			
				<text transform="matrix(-0.0162 0.9999 -0.9999 -0.0162 159.2678 195.8816)" fill="#FFFFFF" font-family="'CourierNewPS-BoldMT'" font-size="18.0006">E</text>
			<circle fill="none" cx="53.5" cy="201.5" r="120"/>
			
				<text transform="matrix(-0.456 0.89 -0.89 -0.456 150.075 244.8103)" fill="#FFFFFF" font-family="'CourierNewPS-BoldMT'" font-size="18">1</text>
			
				<text transform="matrix(-0.456 0.89 -0.89 -0.456 145.1726 254.3845)" fill="#FFFFFF" font-family="'CourierNewPS-BoldMT'" font-size="18">2</text>
			<circle fill="none" cx="53.5" cy="201.5" r="120"/>
			
				<text transform="matrix(-0.839 0.5442 -0.5442 -0.839 115.4495 287.3083)" fill="#FFFFFF" font-family="'CourierNewPS-BoldMT'" font-size="18.0007">1</text>
			
				<text transform="matrix(-0.839 0.5442 -0.5442 -0.839 106.4285 293.1667)" fill="#FFFFFF" font-family="'CourierNewPS-BoldMT'" font-size="18.0007">5</text>
			<circle fill="none" cx="53.498" cy="201.5" r="120"/>
			
				<text transform="matrix(-0.9999 -0.0162 0.0162 -0.9999 59.1394 307.2732)" fill="#FFFFFF" font-family="'CourierNewPS-BoldMT'" font-size="18.0006">S</text>
			<circle fill="none" cx="53.498" cy="201.5" r="120"/>
			
				<text transform="matrix(-0.89 -0.4559 0.4559 -0.89 10.2078 298.0818)" fill="#FFFFFF" font-family="'CourierNewPS-BoldMT'" font-size="18">2</text>
			
				<text transform="matrix(-0.89 -0.4559 0.4559 -0.89 0.6531 293.1892)" fill="#FFFFFF" font-family="'CourierNewPS-BoldMT'" font-size="18">1</text>
			<circle fill="none" cx="53.498" cy="201.5" r="120"/>
			
				<text transform="matrix(-0.5441 -0.839 0.839 -0.5441 -32.2942 263.4431)" fill="#FFFFFF" font-family="'CourierNewPS-BoldMT'" font-size="18">2</text>
			
				<text transform="matrix(-0.5441 -0.839 0.839 -0.5441 -38.1375 254.4392)" fill="#FFFFFF" font-family="'CourierNewPS-BoldMT'" font-size="18">4</text>
			<circle fill="none" cx="53.498" cy="201.5" r="120"/>
			
				<text transform="matrix(0.0162 -0.9999 0.9999 0.0162 -52.2585 207.1482)" fill="#FFFFFF" font-family="'CourierNewPS-BoldMT'" font-size="18.0006">W</text>
			<circle fill="none" cx="53.498" cy="201.5" r="120"/>
			
				<text transform="matrix(0.456 -0.89 0.89 0.456 -43.0764 158.1907)" fill="#FFFFFF" font-family="'CourierNewPS-BoldMT'" font-size="18">3</text>
			
				<text transform="matrix(0.456 -0.89 0.89 0.456 -38.1741 148.6165)" fill="#FFFFFF" font-family="'CourierNewPS-BoldMT'" font-size="18">0</text>
			<circle fill="none" cx="53.498" cy="201.5" r="120"/>
			
				<text transform="matrix(0.839 -0.5442 0.5442 0.839 -8.4407 115.7195)" fill="#FFFFFF" font-family="'CourierNewPS-BoldMT'" font-size="18.0007">3</text>
			
				<text transform="matrix(0.839 -0.5442 0.5442 0.839 0.5823 109.863)" fill="#FFFFFF" font-family="'CourierNewPS-BoldMT'" font-size="18.0007">3</text>
		</g>
		<g id="Layer_21" display="inline">
			<g>
				<rect x="52.5" y="321.088" fill="#FFFFFF" width="2" height="19.825"/>
				
					<rect x="75.967" y="319.109" transform="matrix(-0.9854 0.1705 -0.1705 -0.9854 208.9022 640.1056)" fill="#FFFFFF" width="1.999" height="19.827"/>
				
					<rect x="98.022" y="313.306" transform="matrix(-0.9417 0.3365 -0.3365 -0.9417 301.0374 594.2635)" fill="#FFFFFF" width="1.999" height="19.826"/>
				
					<rect x="118.31" y="304.077" transform="matrix(-0.8702 0.4927 -0.4927 -0.8702 377.8411 528.4347)" fill="#FFFFFF" width="2" height="19.826"/>
				
					<rect x="136.47" y="291.648" transform="matrix(-0.772 0.6357 -0.6357 -0.772 435.2817 446.9759)" fill="#FFFFFF" width="1.999" height="19.827"/>
				
					<rect x="152.112" y="276.305" transform="matrix(-0.6493 0.7606 -0.7606 -0.6493 470.2096 355.5978)" fill="#FFFFFF" width="2" height="19.827"/>
				
					<rect x="164.859" y="258.426" transform="matrix(-0.5045 0.8634 -0.8634 -0.5045 481.2221 260.5054)" fill="#FFFFFF" width="2" height="19.828"/>
				
					<rect x="174.329" y="238.256" transform="matrix(-0.3413 0.94 -0.94 -0.3413 468.4375 168.0707)" fill="#FFFFFF" width="2" height="19.826"/>
				
					<rect x="180.149" y="216.085" transform="matrix(-0.165 0.9863 -0.9863 -0.165 433.9436 84.6295)" fill="#FFFFFF" width="2" height="19.826"/>
				
					<rect x="181.982" y="192.296" transform="matrix(0.0132 0.9999 -0.9999 0.0132 382.76 16.5765)" fill="#FFFFFF" width="1.999" height="19.826"/>
				
					<rect x="179.657" y="168.837" transform="matrix(0.187 0.9824 -0.9824 0.187 322.4716 -32.1467)" fill="#FFFFFF" width="2" height="19.826"/>
				
					<rect x="173.481" y="146.808" transform="matrix(0.353 0.9356 -0.9356 0.353 259.5101 -61.8544)" fill="#FFFFFF" width="2" height="19.826"/>
				
					<rect x="163.779" y="126.497" transform="matrix(0.5064 0.8623 -0.8623 0.5064 198.9714 -74.7545)" fill="#FFFFFF" width="2" height="19.827"/>
				
					<rect x="150.977" y="108.347" transform="matrix(0.6432 0.7657 -0.7657 0.6432 144.7878 -74.1734)" fill="#FFFFFF" width="2" height="19.826"/>
				
					<rect x="135.407" y="92.672" transform="matrix(0.7628 0.6466 -0.6466 0.7628 98.6828 -63.8706)" fill="#FFFFFF" width="2" height="19.826"/>
				
					<rect x="117.424" y="79.82" transform="matrix(0.8614 0.5079 -0.5079 0.8614 61.9829 -47.71)" fill="#FFFFFF" width="2" height="19.826"/>
				
					<rect x="97.353" y="70.221" transform="matrix(0.9362 0.3514 -0.3514 0.9362 34.4367 -29.4539)" fill="#FFFFFF" width="2.001" height="19.826"/>
				
					<rect x="75.594" y="64.182" transform="matrix(0.9838 0.1792 -0.1792 0.9838 14.5165 -12.5254)" fill="#FFFFFF" width="2" height="19.827"/>
				<rect x="52.5" y="62.087" fill="#FFFFFF" width="2" height="19.826"/>
				
					<rect x="29.406" y="64.184" transform="matrix(0.9835 -0.1807 0.1807 0.9835 -12.8882 6.7136)" fill="#FFFFFF" width="2" height="19.826"/>
				
					<rect x="7.638" y="70.208" transform="matrix(0.9358 -0.3525 0.3525 0.9358 -27.6854 8.1864)" fill="#FFFFFF" width="2" height="19.828"/>
				
					<rect x="-12.424" y="79.833" transform="matrix(0.8608 -0.509 0.509 0.8608 -47.2675 6.6796)" fill="#FFFFFF" width="2.001" height="19.828"/>
				
					<rect x="-30.406" y="92.655" transform="matrix(0.7617 -0.6479 0.6479 0.7617 -73.4645 5.3894)" fill="#FFFFFF" width="2" height="19.827"/>
				
					<rect x="-45.983" y="108.341" transform="matrix(0.6421 -0.7666 0.7666 0.6421 -106.7551 7.8378)" fill="#FFFFFF" width="2" height="19.827"/>
				
					<rect x="-58.782" y="126.51" transform="matrix(0.5048 -0.8632 0.8632 0.5048 -146.3732 17.6729)" fill="#FFFFFF" width="2" height="19.825"/>
				
					<rect x="-68.458" y="146.795" transform="matrix(0.3514 -0.9362 0.9362 0.3514 -190.4618 38.4795)" fill="#FFFFFF" width="2.001" height="19.826"/>
				
					<rect x="-74.641" y="168.847" transform="matrix(0.1861 -0.9825 0.9825 0.1861 -235.579 73.1453)" fill="#FFFFFF" width="2" height="19.826"/>
				
					<rect x="-76.982" y="192.296" transform="matrix(0.0117 -0.9999 0.9999 0.0117 -277.2872 123.8638)" fill="#FFFFFF" width="2" height="19.828"/>
				
					<rect x="-75.169" y="216.098" transform="matrix(-0.1675 -0.9859 0.9859 -0.1675 -309.4114 190.7449)" fill="#FFFFFF" width="2" height="19.828"/>
				
					<rect x="-69.32" y="238.258" transform="matrix(-0.3422 -0.9396 0.9396 -0.3422 -324.8879 268.894)" fill="#FFFFFF" width="2.001" height="19.827"/>
				
					<rect x="-59.845" y="258.425" transform="matrix(-0.5058 -0.8627 0.8627 -0.5058 -320.0923 353.2967)" fill="#FFFFFF" width="2" height="19.827"/>
				
					<rect x="-47.093" y="276.312" transform="matrix(-0.6511 -0.759 0.759 -0.6511 -293.3447 437.6075)" fill="#FFFFFF" width="2.001" height="19.827"/>
				
					<rect x="-31.465" y="291.62" transform="matrix(-0.7734 -0.6339 0.6339 -0.7734 -245.1608 515.4396)" fill="#FFFFFF" width="2.001" height="19.827"/>
				
					<rect x="-13.325" y="304.064" transform="matrix(-0.8707 -0.4918 0.4918 -0.8707 -177.4616 581.3053)" fill="#FFFFFF" width="2" height="19.827"/>
				
					<rect x="6.98" y="313.305" transform="matrix(-0.9422 -0.3351 0.3351 -0.9422 -92.8018 630.4268)" fill="#FFFFFF" width="1.999" height="19.827"/>
				
					<rect x="29.028" y="319.091" transform="matrix(-0.9855 -0.1695 0.1695 -0.9855 3.8661 658.3383)" fill="#FFFFFF" width="2" height="19.826"/>
				<rect x="52.5" y="321.5" fill="#FFFFFF" width="2" height="19"/>
			</g>
			<g>
				
					<rect x="40.728" y="331.001" transform="matrix(-0.9962 -0.0873 0.0873 -0.9962 53.9571 674.3618)" fill="#FFFFFF" width="2.002" height="10"/>
				
					<rect x="65.094" y="330.923" transform="matrix(-0.9957 0.0923 -0.0923 -0.9957 162.9096 664.3131)" fill="#FFFFFF" width="2" height="10.001"/>
				
					<rect x="88.402" y="326.69" transform="matrix(-0.964 0.2659 -0.2659 -0.964 263.7787 627.6707)" fill="#FFFFFF" width="2.002" height="10"/>
				
					<rect x="110.227" y="318.552" transform="matrix(-0.9035 0.4286 -0.4286 -0.9035 350.3867 568.2166)" fill="#FFFFFF" width="2.001" height="10"/>
				
					<rect x="130.169" y="306.938" transform="matrix(-0.8179 0.5754 -0.5754 -0.8179 417.93 491.6018)" fill="#FFFFFF" width="2.001" height="10"/>
				
					<rect x="147.774" y="292.128" transform="matrix(-0.7088 0.7054 -0.7054 -0.7088 463.82 402.791)" fill="#FFFFFF" width="2" height="10"/>
				
					<rect x="162.678" y="274.536" transform="matrix(-0.5789 0.8154 -0.8154 -0.5789 486.3627 307.9068)" fill="#FFFFFF" width="1.999" height="10"/>
				
					<rect x="174.487" y="254.464" transform="matrix(-0.4293 0.9031 -0.9031 -0.4293 485.1642 212.3745)" fill="#FFFFFF" width="1.999" height="10.001"/>
				
					<rect x="182.71" y="232.259" transform="matrix(-0.2637 0.9646 -0.9646 -0.2637 461.0202 122.6272)" fill="#FFFFFF" width="2" height="9.999"/>
				
					<rect x="186.989" y="208.254" transform="matrix(-0.0874 0.9962 -0.9962 -0.0874 416.8589 44.6251)" fill="#FFFFFF" width="2" height="10"/>
				
					<rect x="186.919" y="183.909" transform="matrix(0.0923 0.9957 -0.9957 0.0923 358.6862 -15.6366)" fill="#FFFFFF" width="2.001" height="10"/>
				
					<rect x="182.686" y="160.598" transform="matrix(0.2657 0.9641 -0.9641 0.2657 294.5318 -55.4825)" fill="#FFFFFF" width="2" height="10"/>
				
					<rect x="174.558" y="138.761" transform="matrix(0.4282 0.9037 -0.9037 0.4282 230.3057 -76.4445)" fill="#FFFFFF" width="2" height="10.001"/>
				
					<rect x="162.929" y="118.862" transform="matrix(0.5753 0.818 -0.818 0.5753 170.9414 -81.4801)" fill="#FFFFFF" width="2" height="9.999"/>
				
					<rect x="148.144" y="101.227" transform="matrix(0.7054 0.7088 -0.7088 0.7054 119.2335 -74.42)" fill="#FFFFFF" width="1.999" height="10"/>
				
					<rect x="130.549" y="86.303" transform="matrix(0.8153 0.579 -0.579 0.8153 77.1616 -59.3073)" fill="#FFFFFF" width="2" height="9.999"/>
				
					<rect x="110.469" y="74.524" transform="matrix(0.9032 0.4292 -0.4292 0.9032 44.9149 -40.1422)" fill="#FFFFFF" width="2" height="10"/>
				
					<rect x="88.256" y="66.3" transform="matrix(0.9646 0.2637 -0.2637 0.9646 21.9645 -21.0156)" fill="#FFFFFF" width="2" height="10"/>
				
					<rect x="64.266" y="62.007" transform="matrix(0.9962 0.0874 -0.0874 0.9962 6.1068 -5.4484)" fill="#FFFFFF" width="2" height="10"/>
				
					<rect x="39.891" y="62.071" transform="matrix(0.9957 -0.0923 0.0923 0.9957 -6.0159 4.0603)" fill="#FFFFFF" width="2" height="10"/>
				
					<rect x="16.598" y="66.319" transform="matrix(0.964 -0.2659 0.2659 0.964 -18.329 7.2462)" fill="#FFFFFF" width="2.002" height="10"/>
				
					<rect x="-5.221" y="74.443" transform="matrix(0.9036 -0.4284 0.4284 0.9036 -34.4369 5.8495)" fill="#FFFFFF" width="1.999" height="9.999"/>
				
					<rect x="-25.145" y="86.066" transform="matrix(0.8177 -0.5756 0.5756 0.8177 -56.8175 2.7001)" fill="#FFFFFF" width="2" height="9.999"/>
				
					<rect x="-42.775" y="100.847" transform="matrix(0.7086 -0.7056 0.7056 0.7086 -86.8644 1.3687)" fill="#FFFFFF" width="2" height="10"/>
				
					<rect x="-57.682" y="118.459" transform="matrix(0.5787 -0.8155 0.8155 0.5787 -124.5665 5.7872)" fill="#FFFFFF" width="2" height="10"/>
				
					<rect x="-69.474" y="138.538" transform="matrix(0.4292 -0.9032 0.9032 0.4292 -168.7356 20.09)" fill="#FFFFFF" width="2" height="10.001"/>
				
					<rect x="-77.706" y="160.745" transform="matrix(0.2636 -0.9646 0.9646 0.2636 -216.367 48.0602)" fill="#FFFFFF" width="2" height="10"/>
				
					<rect x="-81.983" y="184.734" transform="matrix(0.0869 -0.9962 0.9962 0.0869 -262.9592 92.5654)" fill="#FFFFFF" width="2" height="10.001"/>
				
					<rect x="-81.926" y="209.097" transform="matrix(-0.0928 -0.9957 0.9957 -0.0928 -301.6084 153.3836)" fill="#FFFFFF" width="2" height="10.001"/>
				
					<rect x="-77.671" y="232.386" transform="matrix(-0.266 -0.964 0.964 -0.266 -325.8988 226.6241)" fill="#FFFFFF" width="2.001" height="9.999"/>
				
					<rect x="-69.571" y="254.231" transform="matrix(-0.4286 -0.9035 0.9035 -0.4286 -332.1755 308.3755)" fill="#FFFFFF" width="2.001" height="10"/>
				
					<rect x="-57.923" y="274.149" transform="matrix(-0.5758 -0.8176 0.8176 -0.5758 -317.9259 393.3491)" fill="#FFFFFF" width="2" height="10"/>
				
					<rect x="-43.149" y="291.771" transform="matrix(-0.7054 -0.7088 0.7088 -0.7054 -282.2356 476.237)" fill="#FFFFFF" width="2" height="10"/>
				
					<rect x="-25.542" y="306.674" transform="matrix(-0.8153 -0.579 0.579 -0.8153 -225.0172 551.5758)" fill="#FFFFFF" width="2" height="10"/>
				
					<rect x="-5.473" y="318.463" transform="matrix(-0.9031 -0.4293 0.4293 -0.9031 -147.3901 613.6753)" fill="#FFFFFF" width="1.999" height="10.001"/>
				
					<rect x="16.751" y="326.694" transform="matrix(-0.9646 -0.2637 0.2637 -0.9646 -52.6068 656.324)" fill="#FFFFFF" width="2" height="9.998"/>
				
					<rect x="40.743" y="330.994" transform="matrix(-0.9962 -0.0874 0.0874 -0.9962 53.9581 674.3506)" fill="#FFFFFF" width="2" height="10"/>
			</g>
		</g>
	</g>
	<g id="To" display="none">
		<polygon display="inline" fill="#FFFFFF" points="36,181.547 26.069,166.5 16,181.453 		"/>
	</g>
	<g id="From" display="none">
		<polygon display="inline" fill="#FFFFFF" points="16,221.5 26,236.5 36,221.5 		"/>
	</g>
	<g id="Plane" display="none">
		<rect x="51" y="174" display="inline" fill="#FFFFFF" width="5" height="70"/>
		<rect x="26" y="199" display="inline" fill="#FFFFFF" width="55" height="5"/>
		<rect x="41" y="229" display="inline" fill="#FFFFFF" width="25" height="5"/>
	</g>
	<g id="Course">
		<g>
			<line fill="#C9D32C" x1="53.5" y1="131" x2="53.5" y2="62"/>
			<g>
				<line fill="none" stroke="#FCEE21" stroke-width="2" stroke-miterlimit="10" x1="53.5" y1="131" x2="53.5" y2="72.046"/>
				<g>
					<polygon fill="#FCEE21" points="60.481,74.089 53.5,62 46.519,74.089 					"/>
				</g>
			</g>
		</g>
		<line fill="#C9D32C" stroke="#FCEE21" stroke-width="2" stroke-miterlimit="10" x1="53.5" y1="341" x2="53.5" y2="272"/>
		<circle fill="#FFFFFF" cx="8.5" cy="201.5" r="5"/>
		<circle fill="#FFFFFF" cx="-36.5" cy="201.5" r="5"/>
		<circle fill="#FFFFFF" cx="143.5" cy="201.5" r="5"/>
		<circle fill="#FFFFFF" cx="98.5" cy="201.5" r="5"/>
	</g>
	<g id="Course_deviation_indicator" display="none">
		
			<line display="inline" fill="#C9D32C" stroke="#FCEE21" stroke-width="2" stroke-miterlimit="10" x1="53.5" y1="270.5" x2="53.5" y2="132.5"/>
	</g>
	<g id="Heading_bug" display="none">
		<polygon display="inline" fill="#FFFFFF" points="41.299,62.033 42,70.043 47.898,69.5 51.5,66.875 51.469,61.516 		"/>
		<polygon display="inline" fill="#FFFFFF" points="65.498,62.033 64.797,70.043 58.898,69.5 55.297,66.875 55.328,61.516 		"/>
	</g>
</g>
<g id="AI" display="none">
	<g id="Gimbal" display="inline">
		<rect id="Ground" x="-966.5" y="201.5" fill="#754C24" width="360" height="400"/>
		<rect id="Air" x="-966.5" y="-198.5" fill="#0071BC" width="360" height="400"/>
		<rect x="-826.5" y="159.5" fill="#FFFFFF" width="80" height="4"/>
		<rect x="-806.5" y="181.5" fill="#FFFFFF" width="40" height="4"/>
		<rect x="-806.5" y="139.5" fill="#FFFFFF" width="40" height="4"/>
		<rect x="-826.5" y="119.5" fill="#FFFFFF" width="80" height="4"/>
		<rect x="-746.5" y="156.5" fill="none" width="20" height="10"/>
		<text transform="matrix(1 0 0 1 -745.1184 165.363)" fill="#FFFFFF" font-family="'CourierNewPS-BoldMT'" font-size="14">10</text>
		<rect x="-746.5" y="116.5" fill="none" width="20" height="10"/>
		<text transform="matrix(1 0 0 1 -744.9456 125.363)" fill="#FFFFFF" font-family="'CourierNewPS-BoldMT'" font-size="14">20</text>
		<rect x="-846.5" y="156.5" fill="none" width="20" height="10"/>
		<text transform="matrix(1 0 0 1 -845.1184 165.363)" fill="#FFFFFF" font-family="'CourierNewPS-BoldMT'" font-size="14">10</text>
		<rect x="-846.5" y="116.5" fill="none" width="20" height="10"/>
		<text transform="matrix(1 0 0 1 -844.9456 125.363)" fill="#FFFFFF" font-family="'CourierNewPS-BoldMT'" font-size="14">20</text>
		<rect x="-806.5" y="99.5" fill="#FFFFFF" width="40" height="4"/>
		<rect x="-826.5" y="279.5" fill="#FFFFFF" width="80" height="4"/>
		<rect x="-806.5" y="301.5" fill="#FFFFFF" width="40" height="4"/>
		<rect x="-806.5" y="259.5" fill="#FFFFFF" width="40" height="4"/>
		<rect x="-826.5" y="239.5" fill="#FFFFFF" width="80" height="4"/>
		<rect x="-746.5" y="276.5" fill="none" width="20" height="10"/>
		<text transform="matrix(1 0 0 1 -745.1184 285.363)" fill="#FFFFFF" font-family="'CourierNewPS-BoldMT'" font-size="14">10</text>
		<rect x="-746.5" y="236.5" fill="none" width="20" height="10"/>
		<text transform="matrix(1 0 0 1 -744.9456 245.363)" fill="#FFFFFF" font-family="'CourierNewPS-BoldMT'" font-size="14">20</text>
		<rect x="-846.5" y="276.5" fill="none" width="20" height="10"/>
		<text transform="matrix(1 0 0 1 -845.1184 285.363)" fill="#FFFFFF" font-family="'CourierNewPS-BoldMT'" font-size="14">10</text>
		<rect x="-846.5" y="236.5" fill="none" width="20" height="10"/>
		<text transform="matrix(1 0 0 1 -844.9456 245.363)" fill="#FFFFFF" font-family="'CourierNewPS-BoldMT'" font-size="14">20</text>
		<rect x="-806.5" y="219.5" fill="#FFFFFF" width="40" height="4"/>
		<rect x="-966.5" y="199.5" fill="#FFFFFF" width="360" height="4"/>
	</g>
	<g id="Inner" display="inline">
		<path id="Ring" fill="#B3B3B3" d="M-365.691,41.817c-88.365,0-160,71.635-160,160c0,88.367,71.635,160.001,160,160.001
			c88.367,0,160-71.634,160-160.001C-205.691,113.452-277.324,41.817-365.691,41.817z M-365.691,341.817
			c-77.32,0-140-62.679-140-140c0-77.32,62.68-140,140-140s140,62.68,140,140C-225.691,279.138-288.37,341.817-365.691,341.817z"/>
		<g id="Layer_6">
			<g>
				<path fill="#FFFFFF" d="M-486.913,131.827c0,0-0.351-0.02-0.941-0.094c-0.293-0.037-0.653-0.083-1.048-0.161
					c-0.201-0.035-0.412-0.074-0.636-0.111c-0.223-0.041-0.367-0.24-0.583-0.334c-1.625-0.938-3.792-2.189-5.959-3.441
					c-2.166-1.25-4.334-2.502-5.961-3.441c-0.186-0.145-0.434-0.166-0.574-0.352c-0.147-0.174-0.286-0.34-0.416-0.496
					c-0.256-0.318-0.481-0.596-0.665-0.826c-0.359-0.469-0.554-0.758-0.554-0.758s0.345,0.028,0.933,0.102
					c0.289,0.045,0.641,0.102,1.045,0.162c0.202,0.037,0.414,0.072,0.637,0.113c0.232,0.027,0.373,0.232,0.592,0.322
					c1.627,0.938,3.793,2.189,5.961,3.441c2.166,1.25,4.334,2.501,5.958,3.439c0.188,0.143,0.432,0.17,0.582,0.341
					c0.146,0.173,0.283,0.34,0.416,0.496c0.264,0.307,0.482,0.592,0.663,0.829C-487.107,131.536-486.913,131.827-486.913,131.827z"
					/>
			</g>
			<g>
				<path fill="#FFFFFF" d="M-227.126,121.817c0,0-0.191,0.293-0.55,0.766c-0.18,0.237-0.397,0.523-0.663,0.828
					c-0.126,0.156-0.267,0.322-0.412,0.496c-0.148,0.17-0.393,0.199-0.58,0.34c-1.627,0.939-3.793,2.189-5.959,3.439
					s-4.332,2.502-5.958,3.439c-0.218,0.088-0.361,0.293-0.593,0.322c-0.221,0.039-0.436,0.078-0.633,0.111
					c-0.404,0.063-0.756,0.12-1.047,0.163c-0.588,0.078-0.934,0.102-0.934,0.102s0.195-0.287,0.555-0.757
					c0.186-0.229,0.408-0.506,0.664-0.825c0.129-0.156,0.27-0.322,0.414-0.496c0.139-0.186,0.387-0.206,0.575-0.353
					c1.625-0.938,3.791-2.187,5.957-3.437c2.166-1.25,4.332-2.502,5.959-3.44c0.215-0.092,0.363-0.291,0.584-0.334
					c0.223-0.042,0.437-0.076,0.635-0.113c0.396-0.076,0.754-0.121,1.047-0.16C-227.476,121.839-227.126,121.817-227.126,121.817z"
					/>
			</g>
			<g>
				<path fill="#FFFFFF" d="M-285.69,63.253c0,0-0.02,0.351-0.094,0.941c-0.039,0.293-0.084,0.653-0.16,1.047
					c-0.035,0.202-0.072,0.414-0.111,0.637c-0.043,0.223-0.24,0.367-0.332,0.584c-0.94,1.627-2.189,3.795-3.441,5.962
					c-1.252,2.167-2.502,4.335-3.443,5.958c-0.143,0.188-0.167,0.436-0.352,0.576c-0.174,0.146-0.341,0.283-0.497,0.416
					c-0.318,0.256-0.596,0.48-0.825,0.664c-0.468,0.359-0.757,0.557-0.757,0.557s0.025-0.347,0.102-0.935
					c0.045-0.29,0.101-0.641,0.163-1.046c0.037-0.201,0.074-0.414,0.115-0.636c0.027-0.232,0.23-0.373,0.318-0.591
					c0.941-1.625,2.191-3.793,3.443-5.959c1.252-2.168,2.502-4.336,3.441-5.961c0.143-0.189,0.17-0.432,0.34-0.582
					c0.174-0.147,0.34-0.285,0.496-0.416c0.305-0.264,0.592-0.483,0.829-0.663C-285.982,63.446-285.69,63.253-285.69,63.253z"/>
			</g>
			<g>
				<path fill="#FFFFFF" d="M-445.691,63.253c0,0,0.293,0.193,0.766,0.55c0.237,0.18,0.523,0.399,0.828,0.663
					c0.156,0.13,0.322,0.267,0.496,0.416c0.17,0.148,0.199,0.393,0.34,0.58c0.939,1.625,2.189,3.791,3.439,5.957
					c1.25,2.166,2.502,4.332,3.44,5.958c0.088,0.22,0.293,0.361,0.322,0.591c0.039,0.225,0.078,0.436,0.111,0.636
					c0.063,0.405,0.12,0.756,0.163,1.045c0.078,0.586,0.102,0.934,0.102,0.934s-0.287-0.195-0.758-0.555
					c-0.229-0.184-0.506-0.408-0.824-0.664c-0.156-0.131-0.322-0.268-0.496-0.416c-0.186-0.139-0.205-0.387-0.352-0.575
					c-0.938-1.626-2.188-3.792-3.437-5.959c-1.25-2.166-2.502-4.332-3.44-5.955c-0.092-0.219-0.291-0.363-0.334-0.584
					c-0.042-0.225-0.076-0.437-0.113-0.637c-0.076-0.394-0.121-0.754-0.16-1.047C-445.671,63.604-445.691,63.253-445.691,63.253z"/>
			</g>
			<g id="_x34_5">
				<path fill="#FFFFFF" d="M-266.704,102.831c0,0,0.002-0.225,0.041-0.588c0.018-0.18,0.041-0.398,0.086-0.631
					c0.02-0.121,0.041-0.246,0.063-0.379c0.027-0.129,0.178-0.141,0.242-0.248c0.684-0.684,1.594-1.594,2.506-2.506
					c0.91-0.912,1.822-1.822,2.506-2.506c0.109-0.062,0.117-0.22,0.258-0.232c0.133-0.023,0.26-0.042,0.377-0.062
					c0.232-0.046,0.451-0.069,0.631-0.088c0.359-0.041,0.58-0.047,0.58-0.047s-0.008,0.221-0.045,0.582
					c-0.021,0.178-0.044,0.396-0.09,0.631c-0.02,0.117-0.043,0.244-0.064,0.377c-0.014,0.143-0.17,0.149-0.232,0.256
					c-0.684,0.684-1.594,1.595-2.506,2.506c-0.91,0.912-1.822,1.823-2.506,2.506c-0.105,0.066-0.117,0.217-0.248,0.242
					c-0.131,0.021-0.26,0.045-0.375,0.065c-0.232,0.042-0.455,0.068-0.633,0.085C-266.478,102.829-266.704,102.831-266.704,102.831z
					"/>
			</g>
			<g id="_x2D_10">
				<path fill="#FFFFFF" d="M-389.995,63.971c0,0-0.186-0.126-0.459-0.361c-0.136-0.117-0.302-0.258-0.466-0.426
					c-0.086-0.084-0.176-0.17-0.272-0.265c-0.091-0.095-0.013-0.221-0.064-0.334c-0.167-0.936-0.385-2.186-0.605-3.435
					c-0.219-1.25-0.439-2.499-0.605-3.434c0.012-0.124-0.113-0.217-0.043-0.34c0.059-0.119,0.115-0.234,0.166-0.34
					c0.1-0.215,0.207-0.405,0.291-0.56c0.174-0.313,0.295-0.497,0.295-0.497s0.178,0.131,0.449,0.366
					c0.133,0.117,0.297,0.259,0.463,0.425c0.084,0.084,0.176,0.172,0.273,0.264c0.109,0.09,0.023,0.223,0.076,0.334
					c0.166,0.936,0.385,2.186,0.605,3.436c0.219,1.25,0.439,2.498,0.605,3.433c-0.008,0.123,0.108,0.218,0.054,0.336
					c-0.058,0.121-0.115,0.234-0.166,0.342c-0.096,0.212-0.207,0.404-0.293,0.56C-389.869,63.787-389.995,63.971-389.995,63.971z"/>
			</g>
			<g>
				<path fill="#FFFFFF" d="M-317.802,70.245c0,0-0.093-0.206-0.213-0.551c-0.057-0.171-0.129-0.383-0.188-0.614
					c-0.031-0.115-0.064-0.238-0.1-0.371c-0.032-0.13,0.1-0.208,0.115-0.33c0.332-0.914,0.777-2.133,1.218-3.35
					c0.444-1.219,0.887-2.436,1.219-3.349c0.07-0.106,0.012-0.25,0.135-0.323c0.109-0.079,0.215-0.15,0.314-0.221
					c0.193-0.141,0.383-0.254,0.535-0.35c0.31-0.188,0.508-0.291,0.508-0.291s0.086,0.205,0.205,0.549
					c0.057,0.172,0.125,0.381,0.185,0.611c0.034,0.119,0.065,0.242,0.101,0.373c0.048,0.133-0.093,0.207-0.104,0.334
					c-0.332,0.914-0.775,2.131-1.219,3.35c-0.443,1.218-0.884,2.436-1.216,3.35c-0.069,0.104-0.018,0.248-0.125,0.326
					c-0.111,0.078-0.215,0.153-0.314,0.221c-0.193,0.139-0.381,0.254-0.539,0.348C-317.597,70.148-317.802,70.245-317.802,70.245z"
					/>
			</g>
			<g>
				<path fill="#FFFFFF" d="M-341.381,63.952c0,0-0.126-0.186-0.306-0.504c-0.086-0.158-0.193-0.35-0.292-0.568
					c-0.05-0.108-0.105-0.225-0.163-0.346c-0.054-0.123,0.064-0.219,0.054-0.342c0.17-0.954,0.391-2.221,0.617-3.489
					c0.222-1.267,0.447-2.537,0.615-3.488c0.053-0.113-0.033-0.246,0.076-0.337c0.096-0.094,0.188-0.183,0.273-0.268
					c0.164-0.169,0.33-0.316,0.464-0.433c0.272-0.238,0.45-0.371,0.45-0.371s0.123,0.184,0.294,0.502
					c0.086,0.159,0.191,0.35,0.29,0.566c0.052,0.107,0.109,0.225,0.163,0.345c0.071,0.125-0.05,0.222-0.041,0.344
					c-0.168,0.954-0.391,2.221-0.615,3.489c-0.223,1.268-0.449,2.537-0.617,3.488c-0.047,0.113,0.027,0.246-0.064,0.34
					c-0.096,0.093-0.186,0.183-0.271,0.269c-0.165,0.17-0.332,0.314-0.468,0.434C-341.197,63.821-341.381,63.952-341.381,63.952z"/>
			</g>
			<g>
				<path fill="#FFFFFF" d="M-464.677,102.831c0,0-0.217,0.008-0.565-0.016c-0.171-0.012-0.385-0.025-0.607-0.063
					c-0.113-0.016-0.232-0.031-0.361-0.046c-0.123-0.02-0.13-0.167-0.23-0.225c-0.635-0.635-1.484-1.482-2.331-2.33
					c-0.847-0.846-1.692-1.693-2.33-2.33c-0.055-0.102-0.207-0.102-0.215-0.24c-0.016-0.125-0.035-0.248-0.049-0.362
					c-0.033-0.224-0.047-0.433-0.064-0.605c-0.024-0.345-0.024-0.558-0.024-0.558s0.213,0,0.558,0.024
					c0.17,0.015,0.381,0.031,0.605,0.064c0.114,0.016,0.235,0.033,0.362,0.049c0.139,0.008,0.139,0.16,0.24,0.215
					c0.637,0.637,1.484,1.483,2.33,2.33c0.848,0.846,1.695,1.695,2.33,2.33c0.059,0.1,0.205,0.107,0.225,0.23
					c0.017,0.129,0.033,0.25,0.046,0.361c0.037,0.223,0.051,0.436,0.063,0.607C-464.672,102.614-464.677,102.831-464.677,102.831z"
					/>
			</g>
			<g>
				<path fill="#FFFFFF" d="M-413.581,70.235c0,0-0.203-0.091-0.514-0.271c-0.153-0.09-0.34-0.197-0.531-0.332
					c-0.098-0.066-0.202-0.136-0.313-0.209c-0.105-0.076-0.05-0.215-0.12-0.314c-0.322-0.883-0.75-2.059-1.177-3.234
					c-0.428-1.176-0.857-2.352-1.176-3.234c-0.012-0.121-0.148-0.19-0.099-0.322c0.037-0.127,0.072-0.249,0.105-0.361
					c0.059-0.225,0.133-0.428,0.191-0.596c0.119-0.334,0.207-0.535,0.207-0.535s0.198,0.098,0.502,0.278
					c0.152,0.089,0.34,0.199,0.53,0.333c0.097,0.064,0.201,0.135,0.312,0.207c0.121,0.07,0.059,0.212,0.129,0.311
					c0.322,0.88,0.75,2.058,1.178,3.234c0.428,1.176,0.857,2.352,1.176,3.234c0.016,0.12,0.145,0.191,0.113,0.316
					c-0.037,0.127-0.072,0.248-0.105,0.364c-0.059,0.222-0.131,0.428-0.193,0.595C-413.488,70.035-413.581,70.235-413.581,70.235z"
					/>
			</g>
			<polygon fill="#FFFFFF" points="-365.691,41.445 -372.316,41.522 -365.691,61.757 -359.066,41.522 			"/>
		</g>
	</g>
	<g id="Outer" display="inline">
		<path id="Cover" fill="#1A1A1A" d="M-565.691,1.817v400h400v-400H-565.691z M-363.734,394.13
			c-107.043,0-193.818-86.773-193.818-193.821c0-107.041,86.775-193.818,193.818-193.818c107.041,0,193.818,86.777,193.818,193.818
			C-169.915,307.358-256.693,394.13-363.734,394.13z"/>
		<path fill="#808080" d="M-365.691,1.817c-110.457,0-200,89.543-200,200c0,110.459,89.543,200,200,200
			c110.459,0,200-89.541,200-200C-165.691,91.36-255.232,1.817-365.691,1.817z M-365.691,361.818c-88.365,0-160-71.632-160-160.001
			c0-88.365,71.635-160,160-160c88.369,0,160,71.635,160,160C-205.691,290.186-277.322,361.818-365.691,361.818z"/>
		<polygon fill="#FFFF00" points="-365.691,82.175 -359.066,82.096 -365.691,61.862 -372.316,82.096 		"/>
		<g id="Layer_4">
			<polyline fill="none" stroke="#FFFF00" stroke-width="2" stroke-miterlimit="10" points="-469.691,201.817 -435.468,201.817 
				-400.578,236.987 -365.691,202.233 -330.802,236.918 -295.911,201.817 -261.691,201.817 			"/>
			<circle fill="#FFFF00" cx="-365.691" cy="201.817" r="4"/>
		</g>
	</g>
</g>
</svg>
